
<svg xmlns="http://www.w3.org/2000/svg" version="1.1" xmlns:xlink="http://www.w3.org/1999/xlink" preserveAspectRatio="none" x="0px" y="0px" width="500px" height="450px" viewBox="0 0 500 450">
<defs>
<g id="Layer2_0_FILL">
<path fill="#FFFFCC" stroke="none" d="
M 406.9 381.9
Q 471.9 316.95 471.9 225 471.9 133.1 406.9 68.1 341.9 3.1 250 3.1 158.1 3.1 93.1 68.1 28.1 133.1 28.1 225 28.1 316.95 93.1 381.9 158.1 446.9 250 446.9 341.9 446.9 406.9 381.9 Z"/>
</g>

<g id="Mask_1_MASK_0_FILL">
<path fill="#FFFFFF" stroke="none" d="
M 406.9 388.7
Q 471.9 323.75 471.9 231.8 471.9 139.9 406.9 74.9 341.9 9.9 250 9.9 158.1 9.9 93.1 74.9 28.1 139.9 28.1 231.8 28.1 323.75 93.1 388.7 158.1 453.7 250 453.7 341.9 453.7 406.9 388.7 Z"/>
</g>

<g id="Symbol_1_0_Layer0_0_FILL">
<path fill="#77482D" stroke="none" d="
M -65.4 114.9
L -65.4 123.6 -63.05 124.6 -60.65 125.55
Q -61.6 120.15 -60 115.75
L -65.4 114.9
M -36.85 134
Q -38.4 129.2 -37.2 119.7 -46 119.75 -54.8 116.45 -56.6 122.55 -55.55 128.2
L -36.85 134 Z"/>

<path fill="#754A2C" stroke="none" d="
M -20.3 122.15
Q -25.45 122.75 -31.95 121 -33.9 127.3 -32.55 135.15 -25.2 137.05 -20.05 135.15 -21.15 129.15 -20.3 122.15
M 2 135.25
L 2 126.9 -15 126.9 -15 135.45 2 135.25
M 18.9 120.6
L 7.9 122.1
Q 8.9 129.05 8.4 134.75
L 18.2 132.85
Q 20.8 129.25 18.9 120.6 Z"/>

<path fill="#B96E32" stroke="none" d="
M -99.9 158.85
L -99.9 176.2
Q -101.7 178.6 -101.6 182.9
L -98.65 189.8
Q -98.7 199.65 -97 202.75 -94 204.45 -89.3 202.75 -84 194.5 -81.3 186.2 -80.75 178.4 -83.75 172.45
L -80.45 165.55 -77 172.25 -71.6 177
Q -66.7 177.6 -64.1 174.4 -67.1 171.15 -69.5 162.1
L -69.5 155.2 -73.4 150.7
Q -74.7 151.5 -76 152.3 -87.15 158.75 -99.9 158.85
M 46.05 110.7
Q 44.9 108.45 43.9 106.05
L 38.35 106.05 26.35 110.8 30.15 118.85 24.75 124.4 27 131.25 28 134.4 35.55 140.45 46.65 145.6 49.3 146.85 63.05 140.45 63.05 134.55 66.2 132.95
Q 53.7 126.1 46.05 110.7
M 18.25 -103
Q 17.9 -102.6 17.55 -102.25 14.6 -93.05 4.75 -86.15 -6.1 -80.1 -20.6 -82.85 -32.25 -88.65 -40.4 -96.65
L -41.9 -96.65 -41.9 -87.95
Q -28.8 -75.55 -18 -56.65
L -10.5 -39.95 -9.65 -40.75
Q -4.6 -56.35 9.5 -75.7
L 18.25 -86.95 18.25 -103
M 28.05 -179.25
Q 25.9 -189.5 20.55 -196.4 16.25 -198.35 12.1 -195.3 -8.55 -184.45 -27.65 -193.85 -37.95 -198.45 -41.05 -192.35 -46.75 -183.55 -48.3 -171.15 -49.2 -163 -48.25 -157.1 -47.35 -150.05 -44.2 -142.2 -44 -139 -45 -139.4 -46.55 -141.9 -47.3 -146.5 -48.05 -149.1 -50.35 -150.75 -54.05 -154.15 -58.3 -153.25 -60.75 -153.25 -60.95 -150.55 -61.9 -148.15 -60.95 -144.9 -58.5 -139.45 -54.8 -134.75 -55.3 -128.25 -53.45 -124.25
L -50.3 -120.8 -46.6 -107.8
Q -43.25 -104.05 -40.4 -102.4 -29 -92.5 -16.25 -88.7 2.75 -86.7 17.55 -102.25 17.9 -102.6 18.25 -103 21.9 -105.15 24.65 -108.95 26.75 -114.9 27.5 -121.25 30.05 -123.05 31.4 -127.25 31.85 -131.45 31.4 -134.95 38.9 -143.05 38.65 -148.25 38.55 -153 35 -152.9
L 34.95 -152.9
Q 26 -152.2 24.2 -140.85 22.7 -139.5 21.7 -140.35 24.7 -147.1 27.1 -158 29.6 -168 28.05 -179.25
M 13.6 -154.7
Q 14.3 -154.35 14.95 -154 19.2 -151.75 21.5 -148.8 16.95 -144.65 9.25 -144.75 8.65 -144.75 8 -144.8 6.8 -144.55 5.6 -144.45 0.85 -144.05 -3.35 -145.75 -3.55 -146.7 -3.6 -147.55 -4.1 -153.5 1.45 -156.55 8.7 -158 13.6 -154.7
M 16.5 -166.15
Q 21.3 -162.05 24.4 -156.5 13.7 -164.55 5.15 -162.1
L -5.05 -161.35
Q -6.1 -166.75 -0.3 -168.65 9.05 -170.4 16.5 -166.15
M 29.4 -139.1
Q 30.75 -138.85 31.15 -136.5 29.15 -134.15 28.8 -131.95
L 26.5 -138.45
Q 26.4 -142.2 29 -146.25 31.4 -149.5 34.2 -150.05 30.95 -145.35 29.4 -139.1
M 9.2 -99.55
Q 11.65 -111.1 11.15 -123
L 24.6 -137.25
Q 25.25 -125.1 23.1 -110.85 17.1 -103.75 9.2 -99.55
M 8.6 -119.9
Q 5.3 -112.95 0.5 -109.15
L -0.25 -105.45
Q -7.9 -106.25 -16.3 -105.1
L -18.4 -108.35
Q -25 -113.55 -29.15 -120.3
L -25.3 -119.6 6.1 -119.9 5.85 -119.45 8.6 -119.9
M -38.3 -151.8
Q -35.05 -154.5 -30.75 -156.35 -23.7 -158.65 -20.3 -155.35 -16.05 -152 -16.25 -146.85 -16.3 -146.05 -16.45 -145.2 -21.55 -144.15 -25.75 -144.15 -27.3 -144 -28.5 -144.15 -29.75 -144.35 -30.5 -144.45 -37.45 -145.05 -41.5 -148.65 -40.05 -150.35 -38.3 -151.8
M -39 -165.6
Q -29.1 -169.95 -22 -169.45 -16.05 -168.4 -15.5 -162.3
L -33.6 -162.3
Q -42.9 -156.3 -46.5 -155.8 -42.65 -160.15 -39 -165.6
M -56.95 -150.9
Q -54.9 -151.5 -51.95 -150.15 -49.65 -146.3 -47.7 -138.3
L -49.8 -135.9
Q -49.1 -133 -50.45 -131.55
L -50.15 -131.1 -50.45 -131.55
Q -52.05 -132.35 -52.7 -135.15
L -51.75 -137.65
Q -51 -139.4 -51.75 -142.45 -53.45 -146.85 -56.95 -150.9
M -44.55 -108.6
Q -47.65 -123.2 -47 -136.6
L -35.2 -123
Q -35.4 -112.65 -32.95 -100.2 -38.15 -102.5 -44.55 -108.6
M -3.25 -129.75
Q -0.55 -135.65 -5.45 -141.55 -8.35 -149.05 -7.2 -157.95 -5.75 -145.4 -0.9 -136.35 0.7 -132.15 -0.9 -128 -6.1 -125.2 -15 -126.45 -18.1 -126.45 -20.4 -129
L -20.4 -132.5
Q -19.65 -130.05 -16.75 -129 -8.05 -128.1 -3.25 -129.75 Z"/>

<path fill="#7A3A2A" stroke="none" d="
M -97.3 137.65
L -93.05 139.8 -77.8 137.85 -76 152.3
Q -74.7 151.5 -73.4 150.7 -72.45 150 -71.45 149.3
L -74.9 136.7 -71.1 130.1 -72.1 128.3 -76.65 135.7 -97.3 137.65 Z"/>

<path fill="#73392C" stroke="none" d="
M -69.5 62.5
L -65.4 26.75 -75.2 -0.95 -75.2 64.6 -79.3 132.95 -73.05 126.55 -72.1 128.3 -71.1 130.1 -69.5 62.5
M 53.6 12.65
L 76.35 45.45 52.6 -3.25 47.6 13.65 53.6 12.65 Z"/>

<path fill="#773A31" stroke="none" d="
M -10.15 -39.15
L -10.85 -39.65 -17.7 -33.55 -17.7 81
Q -18.35 103.65 -12.35 120.15
L -7.2 120.15
Q -13.65 106.2 -15.55 81.15
L -15.55 -32.05 -5.55 -42.35 -10.15 -39.15
M -56.7 -74.2
L -58.65 -71.25
Q -55.1 -54.8 -51.6 -45.2 -43.95 -52.45 -33.75 -56
L -12.1 -40.55
Q -20.95 -51.35 -33.4 -60.6
L -50.15 -51.9 -56.7 -74.2
M 33.95 -75.8
L 28.5 -51.4 11.95 -61.4 -10.15 -39.15 -5.55 -42.35 13.95 -56 31.15 -45.7 35.3 -71.35 35.7 -74.05 33.95 -75.8 Z"/>

<path fill="#943E2A" stroke="none" d="
M -10.85 -39.65
L -12.1 -40.55 -33.75 -56
Q -43.95 -52.45 -51.6 -45.2 -55.1 -54.8 -58.65 -71.25 -103.45 -62.8 -102.7 -9.15
L -102.7 68.35 -106.2 132.9 -102.75 139.65 -102.75 158.8
Q -101.3 158.85 -99.9 158.85 -87.15 158.75 -76 152.3
L -77.8 137.85 -93.05 139.8 -97.3 137.65 -76.65 135.7 -72.1 128.3 -73.05 126.55 -79.3 132.95 -75.2 64.6 -75.2 -0.95 -65.4 26.75 -58.8 56.25 -63.4 112.15 -65.4 114.9 -60 115.75
Q -59.65 114.7 -59.15 113.75
L -53.9 113.75
Q -54.4 115.1 -54.8 116.45 -46 119.75 -37.2 119.7 -37.05 118.4 -36.85 117
L -31.25 119.05
Q -31.65 120 -31.95 121 -25.45 122.75 -20.3 122.15 -20.2 121.15 -20.05 120.15
L -12.35 120.15
Q -18.35 103.65 -17.7 81
L -17.7 -33.55 -10.85 -39.65 Z"/>

<path fill="#994C33" stroke="none" d="
M -41.9 -87.95
L -44.4 -88.15 -33.4 -60.6
Q -20.95 -51.35 -12.1 -40.55
L -10.85 -39.65 -10.5 -39.95 -18 -56.65
Q -28.8 -75.55 -41.9 -87.95 Z"/>

<path fill="#943D2E" stroke="none" d="
M -44.4 -88.15
Q -50.25 -79.3 -56.7 -74.2
L -50.15 -51.9 -33.4 -60.6 -44.4 -88.15
M 74.4 -40.3
Q 70.25 -53.45 61 -58.95 49 -67.05 35.3 -71.35
L 31.15 -45.7 13.95 -56 -5.55 -42.35 -15.55 -32.05 -15.55 81.15
Q -13.65 106.2 -7.2 120.15
L 7.55 120.15
Q 7.7 121.15 7.9 122.1
L 18.9 120.6
Q 18.6 119.25 18.2 117.75
L 22.65 116.8
Q 24.2 124.5 23.75 131.25
L 27 131.25 24.75 124.4 30.15 118.85 26.35 110.8 38.35 106.05 43.9 106.05 45.55 102.45 43.3 52.15 51.45 14.8 72.45 50.35 76.2 49.35 94.05 51.15 76.7 53.75 52.9 94.75 64.2 109.5 52.25 99.65 46.05 110.7
Q 53.7 126.1 66.2 132.95
L 73.05 117.35 77.15 115.4
Q 90.9 86.75 105.85 60.35 106.65 52.05 105.85 45.9
L 74.4 -40.3
M 76.35 45.45
L 53.6 12.65 47.6 13.65 46.35 17.75 47.6 13.65 52.6 -3.25 76.35 45.45
M -4.5 -21.25
Q -4.5 -19.9 -5.5 -18.95 -6.45 -17.95 -7.8 -17.95 -9.15 -17.95 -10.15 -18.95 -11.1 -19.9 -11.1 -21.25 -11.1 -22.6 -10.15 -23.6 -9.15 -24.55 -7.8 -24.55 -6.45 -24.55 -5.5 -23.6 -4.5 -22.6 -4.5 -21.25
M -5.5 8.5
Q -4.5 9.5 -4.5 10.85 -4.5 12.2 -5.5 13.15 -6.45 14.15 -7.8 14.15 -9.15 14.15 -10.15 13.15 -11.1 12.2 -11.1 10.85 -11.1 9.5 -10.15 8.5 -9.15 7.55 -7.8 7.55 -6.45 7.55 -5.5 8.5
M -10.15 39.8
Q -9.15 38.85 -7.8 38.85 -6.45 38.85 -5.5 39.8 -4.5 40.8 -4.5 42.15 -4.5 43.5 -5.5 44.45 -6.45 45.45 -7.8 45.45 -9.15 45.45 -10.15 44.45 -11.1 43.5 -11.1 42.15 -11.1 40.8 -10.15 39.8
M -5.5 76.55
Q -6.45 77.55 -7.8 77.55 -9.15 77.55 -10.15 76.55 -11.1 75.6 -11.1 74.25 -11.1 72.9 -10.15 71.9 -9.15 70.95 -7.8 70.95 -6.45 70.95 -5.5 71.9 -4.5 72.9 -4.5 74.25 -4.5 75.6 -5.5 76.55
M -6.55 108.05
Q -7.5 107.1 -7.5 105.75 -7.5 104.4 -6.55 103.4 -5.55 102.45 -4.2 102.45 -2.85 102.45 -1.9 103.4 -0.9 104.4 -0.9 105.75 -0.9 107.1 -1.9 108.05 -2.85 109.05 -4.2 109.05 -5.55 109.05 -6.55 108.05
M 33.95 -75.8
L 20.8 -88.75 18.25 -86.95 11.95 -61.4 28.5 -51.4 33.95 -75.8 Z"/>

<path fill="#88542C" stroke="none" d="
M 7.9 122.1
Q 7.7 121.15 7.55 120.15
L -7.2 120.15
Q -7.05 120.5 -6.9 120.8 -7.05 120.5 -7.2 120.15
L -12.35 120.15
Q -12.2 120.5 -12.1 120.8 -12.2 120.5 -12.35 120.15
L -20.05 120.15
Q -20.2 121.15 -20.3 122.15 -21.15 129.15 -20.05 135.15 -20.55 138.05 -20.05 140.7 -5.6 143.4 7.55 139.95 8.15 137.5 8.4 134.75 8.9 129.05 7.9 122.1
M 2 126.9
L 2 135.25 -15 135.45 -15 126.9 2 126.9 Z"/>

<path fill="#C6A54F" stroke="none" d="
M 18.2 117.75
Q 18.6 119.25 18.9 120.6 20.8 129.25 18.2 132.85
L 8.4 134.75
Q 8.15 137.5 7.55 139.95 -5.6 143.4 -20.05 140.7 -20.55 138.05 -20.05 135.15 -25.2 137.05 -32.55 135.15 -33.9 127.3 -31.95 121 -31.65 120 -31.25 119.05
L -36.85 117
Q -37.05 118.4 -37.2 119.7 -38.4 129.2 -36.85 134
L -55.55 128.2
Q -56.6 122.55 -54.8 116.45 -54.4 115.1 -53.9 113.75
L -59.15 113.75
Q -59.65 114.7 -60 115.75 -61.6 120.15 -60.65 125.55
L -63.05 124.6
Q -66.3 147.85 -64.1 174.4 -64.35 199.95 -61.65 216.25
L 44.7 216.25
Q 47.75 179.8 46.65 145.6
L 35.55 140.45 28 134.4 27 131.25 23.75 131.25
Q 24.2 124.5 22.65 116.8
L 18.2 117.75 Z"/>

<path fill="#752E23" stroke="none" d="
M 52.9 94.75
L 76.7 53.75 94.05 51.15 76.2 49.35 72.45 50.35 51.1 91.3 51.1 96.25 45.55 102.45 43.9 106.05
Q 44.9 108.45 46.05 110.7
L 52.25 99.65 64.2 109.5 52.9 94.75 Z"/>

<path fill="#8B542E" stroke="none" d="
M 4.75 -86.15
Q 14.6 -93.05 17.55 -102.25 2.75 -86.7 -16.25 -88.7 -29 -92.5 -40.4 -102.4
L -40.4 -96.65
Q -32.25 -88.65 -20.6 -82.85 -6.1 -80.1 4.75 -86.15 Z"/>

<path fill="#723C32" stroke="none" d="
M -7.5 105.75
Q -7.5 107.1 -6.55 108.05 -5.55 109.05 -4.2 109.05 -2.85 109.05 -1.9 108.05 -0.9 107.1 -0.9 105.75 -0.9 104.4 -1.9 103.4 -2.85 102.45 -4.2 102.45 -5.55 102.45 -6.55 103.4 -7.5 104.4 -7.5 105.75
M -7.8 77.55
Q -6.45 77.55 -5.5 76.55 -4.5 75.6 -4.5 74.25 -4.5 72.9 -5.5 71.9 -6.45 70.95 -7.8 70.95 -9.15 70.95 -10.15 71.9 -11.1 72.9 -11.1 74.25 -11.1 75.6 -10.15 76.55 -9.15 77.55 -7.8 77.55
M -7.8 38.85
Q -9.15 38.85 -10.15 39.8 -11.1 40.8 -11.1 42.15 -11.1 43.5 -10.15 44.45 -9.15 45.45 -7.8 45.45 -6.45 45.45 -5.5 44.45 -4.5 43.5 -4.5 42.15 -4.5 40.8 -5.5 39.8 -6.45 38.85 -7.8 38.85 Z"/>

<path fill="#74382B" stroke="none" d="
M -4.5 10.85
Q -4.5 9.5 -5.5 8.5 -6.45 7.55 -7.8 7.55 -9.15 7.55 -10.15 8.5 -11.1 9.5 -11.1 10.85 -11.1 12.2 -10.15 13.15 -9.15 14.15 -7.8 14.15 -6.45 14.15 -5.5 13.15 -4.5 12.2 -4.5 10.85 Z"/>

<path fill="#763829" stroke="none" d="
M -5.5 -18.95
Q -4.5 -19.9 -4.5 -21.25 -4.5 -22.6 -5.5 -23.6 -6.45 -24.55 -7.8 -24.55 -9.15 -24.55 -10.15 -23.6 -11.1 -22.6 -11.1 -21.25 -11.1 -19.9 -10.15 -18.95 -9.15 -17.95 -7.8 -17.95 -6.45 -17.95 -5.5 -18.95 Z"/>

<path fill="#9A4D2E" stroke="none" d="
M 18.25 -86.95
L 9.5 -75.7
Q -4.6 -56.35 -9.65 -40.75 -9.9 -39.95 -10.15 -39.15
L 11.95 -61.4 18.25 -86.95 Z"/>

<path fill="#824521" stroke="none" d="
M -5.45 -141.55
Q -0.55 -135.65 -3.25 -129.75 -8.05 -128.1 -16.75 -129 -19.65 -130.05 -20.4 -132.5
L -20.4 -129
Q -18.1 -126.45 -15 -126.45 -6.1 -125.2 -0.9 -128 0.7 -132.15 -0.9 -136.35 -5.75 -145.4 -7.2 -157.95 -8.35 -149.05 -5.45 -141.55 Z"/>

<path fill="#AE6428" stroke="none" d="
M -47 -136.6
Q -47.65 -123.2 -44.55 -108.6 -38.15 -102.5 -32.95 -100.2 -35.4 -112.65 -35.2 -123
L -47 -136.6 Z"/>

<path fill="#8C541B" stroke="none" d="
M -51.95 -150.15
Q -54.9 -151.5 -56.95 -150.9 -53.45 -146.85 -51.75 -142.45 -51 -139.4 -51.75 -137.65
L -52.7 -135.15
Q -52.05 -132.35 -50.45 -131.55 -49.1 -133 -49.8 -135.9
L -47.7 -138.3
Q -49.65 -146.3 -51.95 -150.15 Z"/>

<path fill="#2B1617" stroke="none" d="
M -22 -169.45
Q -29.1 -169.95 -39 -165.6 -42.65 -160.15 -46.5 -155.8 -42.9 -156.3 -33.6 -162.3
L -15.5 -162.3
Q -16.05 -168.4 -22 -169.45
M 24.4 -156.5
Q 21.3 -162.05 16.5 -166.15 9.05 -170.4 -0.3 -168.65 -6.1 -166.75 -5.05 -161.35
L 5.15 -162.1
Q 13.7 -164.55 24.4 -156.5 Z"/>

<path fill="#573D24" stroke="none" d="
M -22.4 -151.35
Q -22.55 -153.7 -25.3 -155.35 -30.35 -156.6 -34.35 -152.7 -35.05 -149.7 -32.85 -146.85 -31.9 -145.25 -30.5 -144.45 -29.75 -144.35 -28.5 -144.15 -27.3 -144 -25.75 -144.15 -22.35 -146.8 -22.4 -151.35
M -31.25 -150.25
Q -31.35 -151.3 -30.55 -152 -29.8 -152.7 -28.45 -152.85 -27.15 -153 -26.2 -152.4 -25.3 -151.85 -25.25 -150.5 -25.25 -149.15 -26.2 -148.45 -27.1 -147.7 -28.45 -147.7 -29.8 -147.7 -30.45 -148.45 -31.15 -149.2 -31.25 -150.25
M 3 -155.25
Q 2.75 -155.1 2.5 -154.9 0.4 -151.8 1.65 -148.3 2.75 -145.2 5.6 -144.45 6.8 -144.55 8 -144.8 8.65 -144.75 9.25 -144.75 12.4 -146.65 13.2 -150.2 13.5 -153.1 11.3 -154.8 7.15 -156.9 3 -155.25
M 9.25 -152.25
Q 10.15 -151.55 10.05 -150.5 9.95 -149.45 9.05 -148.75 8.15 -148 6.85 -148 5.55 -148 4.65 -148.7 3.75 -149.45 3.85 -150.55 3.95 -151.65 4.75 -152.3 5.55 -153 6.95 -153 8.35 -153 9.25 -152.25 Z"/>

<path fill="#1F1615" stroke="none" d="
M -30.55 -152
Q -31.35 -151.3 -31.25 -150.25 -31.15 -149.2 -30.45 -148.45 -29.8 -147.7 -28.45 -147.7 -27.1 -147.7 -26.2 -148.45 -25.25 -149.15 -25.25 -150.5 -25.3 -151.85 -26.2 -152.4 -27.15 -153 -28.45 -152.85 -29.8 -152.7 -30.55 -152
M 10.05 -150.5
Q 10.15 -151.55 9.25 -152.25 8.35 -153 6.95 -153 5.55 -153 4.75 -152.3 3.95 -151.65 3.85 -150.55 3.75 -149.45 4.65 -148.7 5.55 -148 6.85 -148 8.15 -148 9.05 -148.75 9.95 -149.45 10.05 -150.5 Z"/>

<path fill="#FFFDF9" stroke="none" d="
M -20.35 -153.25
Q -22.3 -155 -25.3 -155.35 -22.55 -153.7 -22.4 -151.35 -22.35 -146.8 -25.75 -144.15 -21.55 -144.15 -16.45 -145.2 -16.3 -146.05 -16.25 -146.85 -17.9 -150.3 -20.35 -153.25
M -34.35 -152.7
L -38.3 -151.8
Q -40.05 -150.35 -41.5 -148.65 -37.45 -145.05 -30.5 -144.45 -31.9 -145.25 -32.85 -146.85 -35.05 -149.7 -34.35 -152.7
M 5.85 -119.45
L 6.1 -119.9 -25.3 -119.6 -21.05 -114.9
Q -8.2 -113.2 3.4 -115.55
L 5.85 -119.45 5.15 -119.35 5.85 -119.45
M 5.6 -144.45
Q 2.75 -145.2 1.65 -148.3 0.4 -151.8 2.5 -154.9 -1.75 -151.8 -3.6 -147.55 -3.55 -146.7 -3.35 -145.75 0.85 -144.05 5.6 -144.45
M 11.3 -154.8
Q 13.5 -153.1 13.2 -150.2 12.4 -146.65 9.25 -144.75 16.95 -144.65 21.5 -148.8 19.2 -151.75 14.95 -154 13.1 -154.5 11.3 -154.8 Z"/>

<path fill="#825936" stroke="none" d="
M -38.3 -151.8
L -34.35 -152.7
Q -30.35 -156.6 -25.3 -155.35 -22.3 -155 -20.35 -153.25 -17.9 -150.3 -16.25 -146.85 -16.05 -152 -20.3 -155.35 -23.7 -158.65 -30.75 -156.35 -35.05 -154.5 -38.3 -151.8
M 2.5 -154.9
Q 2.75 -155.1 3 -155.25 7.15 -156.9 11.3 -154.8 13.1 -154.5 14.95 -154 14.3 -154.35 13.6 -154.7 8.7 -158 1.45 -156.55 -4.1 -153.5 -3.6 -147.55 -1.75 -151.8 2.5 -154.9 Z"/>

<path fill="#4C2A33" stroke="none" d="
M 0.5 -109.15
Q 5.3 -112.95 8.6 -119.9
L 5.85 -119.45 3.4 -115.55
Q -8.2 -113.2 -21.05 -114.9
L -25.3 -119.6 -29.15 -120.3
Q -25 -113.55 -18.4 -108.35 -11.4 -110.6 0.5 -109.15 Z"/>

<path fill="#B36127" stroke="none" d="
M 11.15 -123
Q 11.65 -111.1 9.2 -99.55 17.1 -103.75 23.1 -110.85 25.25 -125.1 24.6 -137.25
L 11.15 -123 Z"/>

<path fill="#8D5121" stroke="none" d="
M 31.15 -136.5
Q 30.75 -138.85 29.4 -139.1 30.95 -145.35 34.2 -150.05 31.4 -149.5 29 -146.25 26.4 -142.2 26.5 -138.45
L 28.8 -131.95
Q 29.15 -134.15 31.15 -136.5 Z"/>

<path fill="#050B0B" stroke="none" d="
M 35.9 -203.6
Q 28.6 -216.2 5.6 -219.7 -17.95 -221.95 -33.1 -219 -48.25 -216.05 -56.8 -204.65 -63.3 -194.2 -61.65 -178.9 -61.05 -163.95 -58.3 -153.25 -54.05 -154.15 -50.35 -150.75 -48.05 -149.1 -47.3 -146.5 -46.55 -141.9 -45 -139.4 -44 -139 -44.2 -142.2 -47.35 -150.05 -48.25 -157.1 -49.2 -163 -48.3 -171.15 -46.75 -183.55 -41.05 -192.35 -37.95 -198.45 -27.65 -193.85 -8.55 -184.45 12.1 -195.3 16.25 -198.35 20.55 -196.4 25.9 -189.5 28.05 -179.25 29.6 -168 27.1 -158 24.7 -147.1 21.7 -140.35 22.7 -139.5 24.2 -140.85 26 -152.2 34.95 -152.9
L 35 -152.9
Q 38.45 -165.45 38.85 -179.05 40.6 -195.2 35.9 -203.6 Z"/>
</g>

<path id="Symbol_1_0_Layer0_0_1_STROKES" stroke="#000000" stroke-width="1" stroke-linejoin="round" stroke-linecap="round" fill="none" d="
M 35 -152.9
Q 38.45 -165.45 38.85 -179.05 40.6 -195.2 35.9 -203.6 28.6 -216.2 5.6 -219.7 -17.95 -221.95 -33.1 -219 -48.25 -216.05 -56.8 -204.65 -63.3 -194.2 -61.65 -178.9 -61.05 -163.95 -58.3 -153.25 -54.05 -154.15 -50.35 -150.75 -48.05 -149.1 -47.3 -146.5 -46.55 -141.9 -45 -139.4 -44 -139 -44.2 -142.2 -47.35 -150.05 -48.25 -157.1 -49.2 -163 -48.3 -171.15 -46.75 -183.55 -41.05 -192.35 -37.95 -198.45 -27.65 -193.85 -8.55 -184.45 12.1 -195.3 16.25 -198.35 20.55 -196.4 25.9 -189.5 28.05 -179.25 29.6 -168 27.1 -158 24.7 -147.1 21.7 -140.35 22.7 -139.5 24.2 -140.85 26 -152.2 34.95 -152.9
L 35 -152.9
Q 38.55 -153 38.65 -148.25 38.9 -143.05 31.4 -134.95 31.85 -131.45 31.4 -127.25 30.05 -123.05 27.5 -121.25 26.75 -114.9 24.65 -108.95 21.9 -105.15 18.25 -103
L 18.25 -86.95 20.8 -88.75 33.95 -75.8 35.7 -74.05 35.3 -71.35
Q 49 -67.05 61 -58.95 70.25 -53.45 74.4 -40.3
L 105.85 45.9
Q 106.65 52.05 105.85 60.35 90.9 86.75 77.15 115.4
L 73.05 117.35 66.2 132.95 63.05 134.55 63.05 140.45 49.3 146.85 46.65 145.6
Q 47.75 179.8 44.7 216.25 44.5 218.45 44.3 220.7
M 10.05 -150.5
Q 9.95 -149.45 9.05 -148.75 8.15 -148 6.85 -148 5.55 -148 4.65 -148.7 3.75 -149.45 3.85 -150.55 3.95 -151.65 4.75 -152.3 5.55 -153 6.95 -153 8.35 -153 9.25 -152.25 10.15 -151.55 10.05 -150.5 Z
M 2.5 -154.9
Q 2.75 -155.1 3 -155.25 7.15 -156.9 11.3 -154.8 13.1 -154.5 14.95 -154 14.3 -154.35 13.6 -154.7 8.7 -158 1.45 -156.55 -4.1 -153.5 -3.6 -147.55 -1.75 -151.8 2.5 -154.9 0.4 -151.8 1.65 -148.3 2.75 -145.2 5.6 -144.45 6.8 -144.55 8 -144.8 8.65 -144.75 9.25 -144.75 12.4 -146.65 13.2 -150.2 13.5 -153.1 11.3 -154.8
M 14.95 -154
Q 19.2 -151.75 21.5 -148.8 16.95 -144.65 9.25 -144.75
M 17.55 -102.25
Q 17.9 -102.6 18.25 -103
M -10.15 -39.15
L -5.55 -42.35
M 17.55 -102.25
Q 2.75 -86.7 -16.25 -88.7 -29 -92.5 -40.4 -102.4
L -40.4 -96.65 -41.9 -96.65 -41.9 -87.95
M -10.5 -39.95
L -9.65 -40.75
Q -9.9 -39.95 -10.15 -39.15
L -10.85 -39.65
M -12.35 120.15
L -7.2 120.15
M 72.45 50.35
L 51.1 91.3 51.1 96.25 45.55 102.45 43.9 106.05
Q 44.9 108.45 46.05 110.7 53.7 126.1 66.2 132.95
M 45.55 102.45
L 43.3 52.15 51.45 14.8 72.45 50.35
M 27 131.25
L 24.75 124.4 30.15 118.85 26.35 110.8 38.35 106.05 43.9 106.05
M 27 131.25
L 23.75 131.25
Q 24.2 124.5 22.65 116.8
L 18.2 117.75
Q 18.6 119.25 18.9 120.6 20.8 129.25 18.2 132.85
L 8.4 134.75
Q 8.15 137.5 7.55 139.95 -5.6 143.4 -20.05 140.7 -20.55 138.05 -20.05 135.15 -25.2 137.05 -32.55 135.15 -33.9 127.3 -31.95 121 -31.65 120 -31.25 119.05
L -36.85 117
Q -37.05 118.4 -37.2 119.7 -38.4 129.2 -36.85 134
L -55.55 128.2
Q -56.6 122.55 -54.8 116.45 -54.4 115.1 -53.9 113.75
L -59.15 113.75
Q -59.65 114.7 -60 115.75 -61.6 120.15 -60.65 125.55
L -63.05 124.6
Q -66.3 147.85 -64.1 174.4 -64.35 199.95 -61.65 216.25
L 44.7 216.25
M 7.9 122.1
L 18.9 120.6
M -7.2 120.15
L 7.55 120.15
Q 7.7 121.15 7.9 122.1 8.9 129.05 8.4 134.75
M 27 131.25
L 28 134.4 35.55 140.45 46.65 145.6
M -38.3 -151.8
L -34.35 -152.7
Q -30.35 -156.6 -25.3 -155.35 -22.3 -155 -20.35 -153.25 -17.9 -150.3 -16.25 -146.85 -16.05 -152 -20.3 -155.35 -23.7 -158.65 -30.75 -156.35 -35.05 -154.5 -38.3 -151.8 -40.05 -150.35 -41.5 -148.65 -37.45 -145.05 -30.5 -144.45 -31.9 -145.25 -32.85 -146.85 -35.05 -149.7 -34.35 -152.7
M -25.25 -150.5
Q -25.25 -149.15 -26.2 -148.45 -27.1 -147.7 -28.45 -147.7 -29.8 -147.7 -30.45 -148.45 -31.15 -149.2 -31.25 -150.25 -31.35 -151.3 -30.55 -152 -29.8 -152.7 -28.45 -152.85 -27.15 -153 -26.2 -152.4 -25.3 -151.85 -25.25 -150.5 Z
M -25.75 -144.15
Q -22.35 -146.8 -22.4 -151.35 -22.55 -153.7 -25.3 -155.35
M -40.4 -102.4
Q -43.25 -104.05 -46.6 -107.8
L -50.3 -120.8 -53.45 -124.25
Q -55.3 -128.25 -54.8 -134.75 -58.5 -139.45 -60.95 -144.9 -61.9 -148.15 -60.95 -150.55 -60.75 -153.25 -58.3 -153.25
M 5.6 -144.45
Q 0.85 -144.05 -3.35 -145.75 -3.55 -146.7 -3.6 -147.55
M -16.25 -146.85
Q -16.3 -146.05 -16.45 -145.2 -21.55 -144.15 -25.75 -144.15 -27.3 -144 -28.5 -144.15 -29.75 -144.35 -30.5 -144.45
M -56.7 -74.2
Q -50.25 -79.3 -44.4 -88.15
L -41.9 -87.95
M -56.7 -74.2
L -58.65 -71.25
M -10.85 -39.65
L -10.5 -39.95 -10.15 -39.15
M -58.65 -71.25
Q -103.45 -62.8 -102.7 -9.15
L -102.7 68.35 -106.2 132.9 -102.75 139.65 -102.75 158.8
Q -101.3 158.85 -99.9 158.85 -87.15 158.75 -76 152.3
M -65.4 26.75
L -58.8 56.25 -63.4 112.15 -65.4 114.9 -60 115.75
M -65.4 26.75
L -69.5 62.5 -71.1 130.1 -74.9 136.7 -71.45 149.3
Q -72.45 150 -73.4 150.7
L -69.5 155.2 -69.5 162.1
Q -67.1 171.15 -64.1 174.4 -66.7 177.6 -71.6 177
L -77 172.25 -80.45 165.55 -83.75 172.45
Q -80.75 178.4 -81.3 186.2 -84 194.5 -89.3 202.75 -94 204.45 -97 202.75 -98.7 199.65 -98.65 189.8
L -101.6 182.9
Q -101.7 178.6 -99.9 176.2
L -99.9 158.85
M -12.35 120.15
Q -12.2 120.5 -12.1 120.8
M -20.3 122.15
Q -20.2 121.15 -20.05 120.15
L -12.35 120.15
M -7.2 120.15
Q -7.05 120.5 -6.9 120.8
M -31.95 121
Q -25.45 122.75 -20.3 122.15 -21.15 129.15 -20.05 135.15
M -63.05 124.6
L -65.4 123.6 -65.4 114.9
M -72.1 128.3
L -71.1 130.1
M -73.4 150.7
Q -74.7 151.5 -76 152.3
M -54.8 116.45
Q -46 119.75 -37.2 119.7"/>

<path id="Symbol_1_0_Layer0_0_2_STROKES" stroke="#B96E32" stroke-width="1" stroke-linejoin="round" stroke-linecap="round" fill="none" d="
M -5.05 -161.35
Q -6.1 -166.75 -0.3 -168.65 9.05 -170.4 16.5 -166.15 21.3 -162.05 24.4 -156.5 13.7 -164.55 5.15 -162.1
L -5.05 -161.35 Z
M 26.5 -138.45
Q 26.4 -142.2 29 -146.25 31.4 -149.5 34.2 -150.05 30.95 -145.35 29.4 -139.1 30.75 -138.85 31.15 -136.5 29.15 -134.15 28.8 -131.95
L 26.5 -138.45 Z
M 11.15 -123
L 24.6 -137.25
Q 25.25 -125.1 23.1 -110.85 17.1 -103.75 9.2 -99.55 11.65 -111.1 11.15 -123 Z
M 0.5 -109.15
Q 5.3 -112.95 8.6 -119.9
L 5.85 -119.45
M -25.3 -119.6
L -29.15 -120.3
Q -25 -113.55 -18.4 -108.35
M 0.5 -109.15
L -0.25 -105.45
Q -7.9 -106.25 -16.3 -105.1
L -18.4 -108.35
M 5.85 -119.45
L 6.1 -119.9 -25.3 -119.6
M 5.85 -119.45
L 5.15 -119.35
M -9.65 -40.75
Q -4.6 -56.35 9.5 -75.7
L 18.25 -86.95
M -40.4 -96.65
Q -32.25 -88.65 -20.6 -82.85 -6.1 -80.1 4.75 -86.15 14.6 -93.05 17.55 -102.25
M -41.9 -87.95
Q -28.8 -75.55 -18 -56.65
L -10.5 -39.95
M -46.5 -155.8
Q -42.65 -160.15 -39 -165.6 -29.1 -169.95 -22 -169.45 -16.05 -168.4 -15.5 -162.3
L -33.6 -162.3
Q -42.9 -156.3 -46.5 -155.8 Z
M -44.55 -108.6
Q -47.65 -123.2 -47 -136.6
L -35.2 -123
Q -35.4 -112.65 -32.95 -100.2 -38.15 -102.5 -44.55 -108.6 Z
M -7.2 -157.95
Q -8.35 -149.05 -5.45 -141.55 -0.55 -135.65 -3.25 -129.75 -8.05 -128.1 -16.75 -129 -19.65 -130.05 -20.4 -132.5
L -20.4 -129
Q -18.1 -126.45 -15 -126.45 -6.1 -125.2 -0.9 -128 0.7 -132.15 -0.9 -136.35 -5.75 -145.4 -7.2 -157.95 Z"/>

<path id="Symbol_1_0_Layer0_0_3_STROKES" stroke="#4C2A33" stroke-width="1" stroke-linejoin="round" stroke-linecap="round" fill="none" d="
M 5.85 -119.45
L 3.4 -115.55
Q -8.2 -113.2 -21.05 -114.9
L -25.3 -119.6
M 0.5 -109.15
Q -11.4 -110.6 -18.4 -108.35"/>

<path id="Symbol_1_0_Layer0_0_4_STROKES" stroke="#773A31" stroke-width="1" stroke-linejoin="round" stroke-linecap="round" fill="none" d="
M 33.95 -75.8
L 28.5 -51.4 11.95 -61.4 -10.15 -39.15
M 11.95 -61.4
L 18.25 -86.95
M -56.7 -74.2
L -50.15 -51.9 -33.4 -60.6 -44.4 -88.15
M -33.4 -60.6
Q -20.95 -51.35 -12.1 -40.55"/>

<path id="Symbol_1_0_Layer0_0_5_STROKES" stroke="#943D2E" stroke-width="1" stroke-linejoin="round" stroke-linecap="round" fill="none" d="
M -5.55 -42.35
L 13.95 -56 31.15 -45.7 35.3 -71.35
M -10.85 -39.65
L -17.7 -33.55 -17.7 81
Q -18.35 103.65 -12.35 120.15
M -7.2 120.15
Q -13.65 106.2 -15.55 81.15
L -15.55 -32.05 -5.55 -42.35
M 47.6 13.65
L 52.6 -3.25 76.35 45.45 53.6 12.65 47.6 13.65 46.35 17.75
M 46.05 110.7
L 52.25 99.65 64.2 109.5 52.9 94.75 76.7 53.75 94.05 51.15 76.2 49.35 72.45 50.35
M -58.65 -71.25
Q -55.1 -54.8 -51.6 -45.2 -43.95 -52.45 -33.75 -56
L -12.1 -40.55 -10.85 -39.65
M -4.5 -21.25
Q -4.5 -19.9 -5.5 -18.95 -6.45 -17.95 -7.8 -17.95 -9.15 -17.95 -10.15 -18.95 -11.1 -19.9 -11.1 -21.25 -11.1 -22.6 -10.15 -23.6 -9.15 -24.55 -7.8 -24.55 -6.45 -24.55 -5.5 -23.6 -4.5 -22.6 -4.5 -21.25 Z
M -4.5 10.85
Q -4.5 12.2 -5.5 13.15 -6.45 14.15 -7.8 14.15 -9.15 14.15 -10.15 13.15 -11.1 12.2 -11.1 10.85 -11.1 9.5 -10.15 8.5 -9.15 7.55 -7.8 7.55 -6.45 7.55 -5.5 8.5 -4.5 9.5 -4.5 10.85 Z
M -4.5 42.15
Q -4.5 43.5 -5.5 44.45 -6.45 45.45 -7.8 45.45 -9.15 45.45 -10.15 44.45 -11.1 43.5 -11.1 42.15 -11.1 40.8 -10.15 39.8 -9.15 38.85 -7.8 38.85 -6.45 38.85 -5.5 39.8 -4.5 40.8 -4.5 42.15 Z
M -4.5 74.25
Q -4.5 75.6 -5.5 76.55 -6.45 77.55 -7.8 77.55 -9.15 77.55 -10.15 76.55 -11.1 75.6 -11.1 74.25 -11.1 72.9 -10.15 71.9 -9.15 70.95 -7.8 70.95 -6.45 70.95 -5.5 71.9 -4.5 72.9 -4.5 74.25 Z
M -0.9 105.75
Q -0.9 107.1 -1.9 108.05 -2.85 109.05 -4.2 109.05 -5.55 109.05 -6.55 108.05 -7.5 107.1 -7.5 105.75 -7.5 104.4 -6.55 103.4 -5.55 102.45 -4.2 102.45 -2.85 102.45 -1.9 103.4 -0.9 104.4 -0.9 105.75 Z"/>

<path id="Symbol_1_0_Layer0_0_6_STROKES" stroke="#88542C" stroke-width="1" stroke-linejoin="round" stroke-linecap="round" fill="none" d="
M -15 126.9
L 2 126.9 2 135.25 -15 135.45 -15 126.9 Z"/>

<path id="Symbol_1_0_Layer0_0_7_STROKES" stroke="#B96E32" stroke-width="1" stroke-linejoin="round" stroke-linecap="round" fill="none" d="
M -50.45 -131.55
Q -49.1 -133 -49.8 -135.9
L -47.7 -138.3
Q -49.65 -146.3 -51.95 -150.15 -54.9 -151.5 -56.95 -150.9 -53.45 -146.85 -51.75 -142.45 -51 -139.4 -51.75 -137.65
L -52.7 -135.15
Q -52.05 -132.35 -50.45 -131.55
L -50.15 -131.1"/>

<path id="Symbol_1_0_Layer0_0_8_STROKES" stroke="#943E2A" stroke-width="1" stroke-linejoin="round" stroke-linecap="round" fill="none" d="
M -76 152.3
L -77.8 137.85 -93.05 139.8 -97.3 137.65 -76.65 135.7 -72.1 128.3 -73.05 126.55 -79.3 132.95 -75.2 64.6 -75.2 -0.95 -65.4 26.75"/>
</defs>

<g transform="matrix( 1, 0, 0, 1, 0,0) ">
<use xlink:href="#Layer2_0_FILL"/>
</g>

<mask id="Mask_Mask_1">
<g transform="matrix( 1, 0, 0, 1, 0,-6.8) ">
<use xlink:href="#Mask_1_MASK_0_FILL"/>
</g>
</mask>

<g mask="url(#Mask_Mask_1)">
<g transform="matrix( 0.9604644775390625, 0, 0, 0.9604644775390625, 250,242.35) ">
<g transform="matrix( 1, 0, 0, 1, 0,0) ">
<use xlink:href="#Symbol_1_0_Layer0_0_FILL"/>

<use xlink:href="#Symbol_1_0_Layer0_0_1_STROKES"/>

<use xlink:href="#Symbol_1_0_Layer0_0_2_STROKES"/>

<use xlink:href="#Symbol_1_0_Layer0_0_3_STROKES"/>

<use xlink:href="#Symbol_1_0_Layer0_0_4_STROKES"/>

<use xlink:href="#Symbol_1_0_Layer0_0_5_STROKES"/>

<use xlink:href="#Symbol_1_0_Layer0_0_6_STROKES"/>

<use xlink:href="#Symbol_1_0_Layer0_0_7_STROKES"/>

<use xlink:href="#Symbol_1_0_Layer0_0_8_STROKES"/>
</g>
</g>
</g>
</svg>
