
<svg xmlns="http://www.w3.org/2000/svg" version="1.1" xmlns:xlink="http://www.w3.org/1999/xlink" preserveAspectRatio="none" x="0px" y="0px" width="500px" height="450px" viewBox="0 0 500 450">
<defs>
<g id="Layer2_0_FILL">
<path fill="#FFFFCC" stroke="none" d="
M 404.25 379.25
Q 468.15 315.35 468.15 225 468.15 134.65 404.25 70.75 340.35 6.85 250 6.85 159.65 6.85 95.75 70.75 31.85 134.65 31.85 225 31.85 315.35 95.75 379.25 159.65 443.15 250 443.15 340.35 443.15 404.25 379.25 Z"/>
</g>

<g id="Mask_1_MASK_0_FILL">
<path fill="#FFFFFF" stroke="none" d="
M 404.25 379.25
Q 468.15 315.35 468.15 225 468.15 134.65 404.25 70.75 340.35 6.85 250 6.85 159.65 6.85 95.75 70.75 31.85 134.65 31.85 225 31.85 315.35 95.75 379.25 159.65 443.15 250 443.15 340.35 443.15 404.25 379.25 Z"/>
</g>

<g id="Symbol_2_0_Layer0_0_FILL">
<path fill="#F2FDFF" stroke="none" d="
M -18.8 102.6
Q -19.5 103.35 -19.5 104.35 -19.5 105.35 -18.8 106.05 -18.15 106.7 -17.25 106.8 -17.15 106.8 -17.05 106.8 -16.05 106.8 -15.35 106.05 -14.6 105.35 -14.6 104.35 -14.6 103.35 -15.35 102.6 -16.05 101.9 -17.05 101.9 -18.05 101.9 -18.8 102.6
M -15.35 89.55
Q -16.05 88.85 -17.05 88.85 -17.25 88.85 -17.45 88.9 -18.2 89 -18.8 89.55 -19.5 90.3 -19.5 91.3 -19.5 92.3 -18.8 93 -18.15 93.65 -17.25 93.75 -17.15 93.75 -17.05 93.75 -16.05 93.75 -15.35 93 -14.6 92.3 -14.6 91.3 -14.6 90.3 -15.35 89.55
M -15.35 77.25
Q -16 76.6 -16.85 76.55 -16.95 76.55 -17.05 76.55 -18.05 76.55 -18.8 77.25 -19.5 78 -19.5 79 -19.5 80 -18.8 80.7 -18.25 81.25 -17.55 81.4 -17.3 81.45 -17.05 81.45 -16.05 81.45 -15.35 80.7 -14.6 80 -14.6 79 -14.6 78 -15.35 77.25
M -16.85 63.8
Q -16.95 63.8 -17.05 63.8 -18.05 63.8 -18.8 64.5 -19.5 65.25 -19.5 66.25 -19.5 67.25 -18.8 67.95 -18.05 68.7 -17.05 68.7 -16.75 68.7 -16.5 68.65 -15.85 68.5 -15.35 67.95 -14.6 67.25 -14.6 66.25 -14.6 65.25 -15.35 64.5 -16 63.85 -16.85 63.8
M -18.8 51.7
Q -19.5 52.45 -19.5 53.45 -19.5 54.45 -18.8 55.15 -18.05 55.9 -17.05 55.9 -16.9 55.9 -16.75 55.9 -15.95 55.8 -15.35 55.15 -14.6 54.45 -14.6 53.45 -14.6 52.45 -15.35 51.7 -16 51.05 -16.95 51 -17 51 -17.05 51 -18.05 51 -18.8 51.7
M -15.35 39.1
Q -16.05 38.4 -17.05 38.4 -17.25 38.4 -17.45 38.45 -18.2 38.55 -18.8 39.1 -19.5 39.85 -19.5 40.85 -19.5 41.85 -18.8 42.55 -18.05 43.3 -17.05 43.3 -16.95 43.3 -16.9 43.3 -16 43.25 -15.35 42.55 -14.6 41.85 -14.6 40.85 -14.6 39.85 -15.35 39.1
M -18.8 26.2
Q -19.5 26.95 -19.5 27.95 -19.5 28.95 -18.8 29.65 -18.7 29.75 -18.65 29.8 -17.95 30.4 -17.05 30.4 -16.05 30.4 -15.35 29.65 -14.6 28.95 -14.6 27.95 -14.6 26.95 -15.35 26.2 -16.05 25.5 -17.05 25.5 -18 25.5 -18.7 26.15 -18.75 26.15 -18.8 26.2
M -17.05 17.45
Q -16.05 17.45 -15.35 16.7 -14.6 16 -14.6 15 -14.6 14 -15.35 13.25 -16.05 12.55 -17.05 12.55 -18.05 12.55 -18.8 13.25 -18.95 13.4 -19.05 13.55 -19.5 14.2 -19.5 15 -19.5 15.7 -19.15 16.3 -19 16.5 -18.8 16.7 -18.05 17.45 -17.05 17.45
M -14.15 2.5
Q -14.15 1.5 -14.9 0.75 -15.6 0.05 -16.6 0.05 -17.6 0.05 -18.35 0.75 -19.05 1.5 -19.05 2.5 -19.05 2.75 -19 3.05 -18.99921875 3.10078125 -18.95 3.15 -18.8 3.75 -18.35 4.2 -17.6 4.95 -16.6 4.95 -15.6 4.95 -14.9 4.2 -14.15 3.5 -14.15 2.5 Z"/>

<path fill="#BE6C27" stroke="none" d="
M -83.65 145.9
Q -82.45 157.65 -83.65 167.15 -77.6 166.95 -76.55 162.45 -73.2 156.35 -72 149.2
L -72 144.6
Q -70.15 140.25 -70.1 131.85
L -69.5 130.25 -67.4 124.6 -61.9 137.35
Q -57.35 141.1 -53.25 141.15 -58.95 133.75 -60.55 121.85 -60.9 119.55 -61.05 117.05 -63.05 114.5 -64.55 110.45 -74.35 116.65 -83.65 118.4 -86.2 132.2 -88.2 151.1 -85.9 151.6 -83.65 145.9 Z"/>

<path fill="#2A8181" stroke="none" d="
M -86.7 112.7
L -86.95 118.85
Q -85.3 118.7 -83.65 118.4 -74.35 116.65 -64.55 110.45 -65.2 108.7 -65.75 106.7 -74.45 112.65 -86.7 112.7 Z"/>

<path fill="#288389" stroke="none" d="
M -62.7 86.5
L -61.25 55.1 -57.2 17.25 -57.2 -3.15 -66.65 41.55 -72.65 107.6 -65.15 102.8 -62.7 86.5 Z"/>

<path fill="#427A80" stroke="none" d="
M -38.7 28.05
Q -31.05 29.05 -25.35 26.1
L -29.85 22.2
Q -41.35 25.75 -53.4 18.15
L -54.65 21
Q -46.95 26.85 -38.7 28.05 Z"/>

<path fill="#2B8189" stroke="none" d="
M -12 -1.55
L -16.35 -4.65 -19.65 0.05 -19 3.05
Q -19.05 2.75 -19.05 2.5 -19.05 1.5 -18.35 0.75 -17.6 0.05 -16.6 0.05 -15.6 0.05 -14.9 0.75 -14.15 1.5 -14.15 2.5 -14.15 3.5 -14.9 4.2 -15.6 4.95 -16.6 4.95 -17.6 4.95 -18.35 4.2 -18.8 3.75 -18.95 3.15 -18.99921875 3.10078125 -19 3.05
L -19.05 13.55
Q -18.95 13.4 -18.8 13.25 -18.05 12.55 -17.05 12.55 -16.05 12.55 -15.35 13.25 -14.6 14 -14.6 15 -14.6 16 -15.35 16.7 -16.05 17.45 -17.05 17.45 -18.05 17.45 -18.8 16.7 -19 16.5 -19.15 16.3
L -18.7 26.15
Q -18 25.5 -17.05 25.5 -16.05 25.5 -15.35 26.2 -14.6 26.95 -14.6 27.95 -14.6 28.95 -15.35 29.65 -16.05 30.4 -17.05 30.4 -17.95 30.4 -18.65 29.8
L -17.45 38.45
Q -17.25 38.4 -17.05 38.4 -16.05 38.4 -15.35 39.1 -14.6 39.85 -14.6 40.85 -14.6 41.85 -15.35 42.55 -16 43.25 -16.9 43.3
L -16.95 51
Q -16 51.05 -15.35 51.7 -14.6 52.45 -14.6 53.45 -14.6 54.45 -15.35 55.15 -15.95 55.8 -16.75 55.9
L -16.85 63.8
Q -16 63.85 -15.35 64.5 -14.6 65.25 -14.6 66.25 -14.6 67.25 -15.35 67.95 -15.85 68.5 -16.5 68.65
L -16.85 76.55
Q -16 76.6 -15.35 77.25 -14.6 78 -14.6 79 -14.6 80 -15.35 80.7 -16.05 81.45 -17.05 81.45 -17.3 81.45 -17.55 81.4
L -17.45 88.9
Q -17.25 88.85 -17.05 88.85 -16.05 88.85 -15.35 89.55 -14.6 90.3 -14.6 91.3 -14.6 92.3 -15.35 93 -16.05 93.75 -17.05 93.75 -17.15 93.75 -17.25 93.75
L -17.05 101.9
Q -16.05 101.9 -15.35 102.6 -14.6 103.35 -14.6 104.35 -14.6 105.35 -15.35 106.05 -16.05 106.8 -17.05 106.8 -17.15 106.8 -17.25 106.8
L -17.25 126.7
Q -15.95 125.7 -14.65 125.2 -12.85 124.55 -11.1 124.75 -13.4 91.7 -13.65 56.45 -14 26.05 -12 -1.55 Z"/>

<path fill="#2A828B" stroke="none" d="
M -39.75 -42.8
L -22.05 -12 -19.65 0.05 -16.35 -4.65
Q -16.7 -14.7 -20.55 -26.25 -29.5 -43.3 -32.55 -51.95
L -35.05 -48.75 -39.75 -42.8
M 7.95 -42.95
L 2.6 -47.75 -0.45 -50.5
Q -2.7 -42.4 -11.4 -28.2 -14.75 -16 -16.35 -4.65
L -12 -1.55 -9 -13.35 7.95 -42.95 Z"/>

<path fill="#42929C" stroke="none" d="
M -46 -60.05
Q -52.05 -55 -59.2 -51.4 -61.85 -49.7 -64.55 -48.25 -68.8 -46 -73.15 -44.3 -89.45 -33.75 -83 0.45
L -86.7 112.7
Q -74.45 112.65 -65.75 106.7
L -65.15 102.8 -72.65 107.6 -66.65 41.55 -57.2 -3.15 -57.2 17.25 -61.25 55.1 -62.7 86.5 -60.25 70.25
Q -56.35 46.45 -54.65 21
L -53.4 18.15
Q -41.35 25.75 -29.85 22.2
L -25.35 26.1
Q -31.05 29.05 -38.7 28.05 -46.95 26.85 -54.65 21 -50.05 31 -51.2 49.1 -56 61.85 -60.25 70.25
L -62.7 86.5 -65.15 102.8 -65.75 106.7
Q -65.2 108.7 -64.55 110.45 -63.05 114.5 -61.05 117.05 -33.15 129.1 -17.25 126.7
L -17.25 106.8
Q -18.15 106.7 -18.8 106.05 -19.5 105.35 -19.5 104.35 -19.5 103.35 -18.8 102.6 -18.05 101.9 -17.05 101.9
L -17.25 93.75
Q -18.15 93.65 -18.8 93 -19.5 92.3 -19.5 91.3 -19.5 90.3 -18.8 89.55 -18.2 89 -17.45 88.9
L -17.55 81.4
Q -18.25 81.25 -18.8 80.7 -19.5 80 -19.5 79 -19.5 78 -18.8 77.25 -18.05 76.55 -17.05 76.55 -16.95 76.55 -16.85 76.55
L -16.5 68.65
Q -16.75 68.7 -17.05 68.7 -18.05 68.7 -18.8 67.95 -19.5 67.25 -19.5 66.25 -19.5 65.25 -18.8 64.5 -18.05 63.8 -17.05 63.8 -16.95 63.8 -16.85 63.8
L -16.75 55.9
Q -16.9 55.9 -17.05 55.9 -18.05 55.9 -18.8 55.15 -19.5 54.45 -19.5 53.45 -19.5 52.45 -18.8 51.7 -18.05 51 -17.05 51 -17 51 -16.95 51
L -16.9 43.3
Q -16.95 43.3 -17.05 43.3 -18.05 43.3 -18.8 42.55 -19.5 41.85 -19.5 40.85 -19.5 39.85 -18.8 39.1 -18.2 38.55 -17.45 38.45
L -18.65 29.8
Q -18.7 29.75 -18.8 29.65 -19.5 28.95 -19.5 27.95 -19.5 26.95 -18.8 26.2 -18.75 26.15 -18.7 26.15
L -19.15 16.3
Q -19.5 15.7 -19.5 15 -19.5 14.2 -19.05 13.55
L -19 3.05 -19.65 0.05 -22.05 -12 -39.75 -42.8 -35.05 -48.75 -48.75 -55.25 -46 -60.05
M 27.2 -51.45
Q 23.4 -53.95 19.75 -56.75
L 2.6 -47.75 7.95 -42.95 -9 -13.35 -12 -1.55
Q -14 26.05 -13.65 56.45 -13.4 91.7 -11.1 124.75 -12.85 124.55 -14.65 125.2 -14.75 126.75 -10.8 127.7 17.1 126.2 36.8 111.95 37.35 101.1 33.7 90.25 33.15 91.1 32.55 91.85 26.2 95.25 18.75 94.4
L 18.75 92.6
Q 15.7 91.55 12.6 86.45 9.4 81.05 11.25 77.15 11.1 68.8 16.5 66.45 15.15 63.85 16.5 60.15
L 22.95 58.85
Q 21.1 55.15 19.2 46.1 18.55 33.55 22.5 21.05 16.9 24.55 10.65 26.75 1.1 29.35 -6.75 24.2
L -2.55 20.15
Q 7.9 24.45 18.3 20.15
L 30.45 12.75
Q 35.65 6.95 38.25 -1.05
L 64.25 20.85 60.2 25.75 68.45 17.7 75.5 22.8 68.45 22.8 43.25 50.25 43.25 57.65 38 52.5 60.2 25.75 64.25 20.85 34.85 53.15 32.3 55.1 41.15 63.2 43.1 77.9 80.95 38.7
Q 89.9 34.45 88.85 20.15 50.65 -38.25 38.25 -45.1 32.55 -47.95 27.2 -51.45 Z"/>

<path fill="#298282" stroke="none" d="
M -32.55 -51.95
Q -32.8 -52.65 -33 -53.3 -33.7 -61.45 -29.65 -77.6 -40.15 -70.35 -46 -60.05
L -48.75 -55.25 -35.05 -48.75 -32.55 -51.95
M 19.75 -56.75
Q 18.25 -57.9 16.75 -59.15 1.15 -77.2 -4.05 -77.1 1.3 -65 0.3 -52.55 0.05 -51.45 -0.45 -50.5
L 2.6 -47.75 19.75 -56.75 Z"/>

<path fill="#080C0B" stroke="none" d="
M -33 -53.3
Q -32.8 -52.65 -32.55 -51.95 -29.5 -43.3 -20.55 -26.25 -16.7 -14.7 -16.35 -4.65 -14.75 -16 -11.4 -28.2 -2.7 -42.4 -0.45 -50.5 -3.45 -45.2 -15.75 -44.3 -27.25 -47.5 -33 -53.3
M 6 -198.45
L 12.8 -198.45
Q 0.4 -208.6 -17.5 -209.75 -36.9 -208.45 -52.45 -198.9 -68.8 -184.2 -72.95 -167.1 -74.25 -147.75 -68.85 -131.45 -60.4 -113.2 -49.7 -102.95 -54.8 -114.9 -54.65 -133.55 -52.1 -148.05 -45.2 -159.15 -34.65 -177.2 -19 -189.55 -7.7 -198.4 6 -198.45
M -66.75 -166.65
Q -62.15 -181 -51.85 -192.85 -36.9 -202.9 -20.5 -205.05 -38.15 -197.6 -50.9 -186.7 -59.6 -168.4 -59.8 -155.8 -55.4 -169.15 -47.3 -180.85 -31.65 -196.05 -17.15 -198.15 -34.75 -183.8 -47.45 -166.2 -58.3 -143.4 -59.5 -121.15 -69.3 -138.6 -66.75 -166.65 Z"/>

<path fill="#090C0C" stroke="none" d="
M -27.9 -91.1
L -27.9 -96.8
Q -44.2 -108.75 -50.6 -118.6 -49.15 -108.4 -42.65 -97.7 -56.95 -100.2 -67.95 -118.3 -65.8 -90.2 -45.2 -74.75 -58.2 -73.1 -68.7 -85.95 -64.95 -69.1 -48.35 -61.8 -63.15 -54.5 -76.2 -66.95 -72.95 -54.75 -64.55 -48.25 -61.85 -49.7 -59.2 -51.4 -52.05 -55 -46 -60.05 -40.15 -70.35 -29.65 -77.6
L -27.9 -85.35 -27.9 -91.1
M 19.7 -122.45
Q 18.95 -120.3 18.15 -118.05 10.35 -102.95 -4.65 -92.05
L -4.05 -87.4
Q -3.4 -81 -4.05 -77.1 1.15 -77.2 16.75 -59.15 18.25 -57.9 19.75 -56.75 23.4 -53.95 27.2 -51.45 47.55 -58.4 49.7 -70.1 34.5 -58.3 15.95 -67.15 34.55 -69.15 31.65 -92.9
L 24.55 -127.4 19.7 -122.45 Z"/>

<path fill="#B96E32" stroke="none" d="
M -4.05 -87.4
Q -8.85 -76.7 -17.25 -79.85 -23.45 -83.45 -27.9 -91.1
L -27.9 -85.35 -29.65 -77.6
Q -33.7 -61.45 -33 -53.3 -27.25 -47.5 -15.75 -44.3 -3.45 -45.2 -0.45 -50.5 0.05 -51.45 0.3 -52.55 1.3 -65 -4.05 -77.1 -3.4 -81 -4.05 -87.4
M 31.45 60.1
Q 27.45 57.85 22.95 58.85
L 16.5 60.15
Q 15.15 63.85 16.5 66.45 11.1 68.8 11.25 77.15 9.4 81.05 12.6 86.45 15.7 91.55 18.75 92.6
L 18.75 94.4
Q 26.2 95.25 32.55 91.85 33.15 91.1 33.7 90.25 36.45 85.9 37.8 79.35 35.9 68.7 31.45 60.1 Z"/>

<path fill="#7F5228" stroke="none" d="
M -4.65 -92.05
Q -7.1 -90 -10.65 -89.75 -19 -90.4 -27.9 -96.8
L -27.9 -91.1
Q -23.45 -83.45 -17.25 -79.85 -8.85 -76.7 -4.05 -87.4
L -4.65 -92.05 Z"/>

<path fill="#863E2E" stroke="none" d="
M -27.75 -151.85
Q -32.45 -155.3 -39.4 -155.35 -43.8 -154.05 -45.4 -151.85 -45.85 -151.3 -46.1 -150.65
L -47.8 -148.05
Q -43.9 -150.35 -37.9 -151.75 -32.95 -152.4 -28.65 -150.35 -23.65 -148.3 -21.35 -144.7 -21.6 -148.75 -27.75 -151.85
M 17.05 -150.8
Q 15.95 -155.1 10.7 -155.25 3.35 -155.4 -2.15 -150.6 -6.7 -148.25 -7.15 -145.2 -5.1 -147.85 -0.55 -150.5 3.3 -152.3 6.4 -151.9 10.05 -152.1 14.6 -149.9
L 17.05 -150.8 Z"/>

<path fill="#ECF8FA" stroke="none" d="
M -30.3 -149.25
Q -30 -149 -29.7 -148.7 -27.85 -146.85 -27.85 -144.3 -27.85 -141.75 -29.7 -139.95 -30.2 -139.4 -30.8 -139 -24.8 -139.6 -21.4 -143.6 -25.5 -147.6 -30.3 -149.25
M -38.45 -148.7
Q -38.1 -149.05 -37.75 -149.3 -43.45 -147.9 -47.3 -145.4 -42.7 -140.25 -37.75 -139.35 -38.15 -139.65 -38.45 -139.95 -40.25 -141.75 -40.25 -144.3 -40.25 -146.85 -38.45 -148.7
M -22.2 -116.65
Q -22.35 -116.65 -22.45 -116.65 -27.75 -117.65 -29.55 -116.95 -26.65 -113.1 -21.1 -111.15 -18.2 -108.05 -13.25 -108.4 -7.7 -108.9 -6.05 -112.15
L -1.45 -117.05
Q -1.05 -117.35 -1.25 -117.5 -1.85 -117.9 -6.2 -117.4 -10.55 -116.95 -16 -116.95 -20.1 -116.95 -22.2 -116.65
M 2.55 -138.35
L 2.6 -138.3 2.65 -138.3
Q 2.6037109375 -138.30703125 2.55 -138.35
M 2.6 -138.3
L 2.55 -138.35 2.5 -138.35 2.6 -138.3
M 2.5 -138.35
L 2 -138.5 2.05 -138.5
Q 2.28203125 -138.4072265625 2.55 -138.35 2.6037109375 -138.30703125 2.65 -138.3 0.25 -139.6 -0.1 -139.95 -1.9 -141.75 -1.9 -144.3 -1.9 -146.85 -0.1 -148.7 0 -148.8 0.1 -148.85 -4.55 -146.9 -7.15 -143.9 -3.6892578125 -139.3021484375 2.5 -138.35
M 2 -138.5
L 2.5 -138.35 2.55 -138.35
Q 2.28203125 -138.4072265625 2.05 -138.5
L 2 -138.5
M 6.7 -150.05
Q 7.75 -149.6 8.65 -148.7 10.5 -146.85 10.2 -143.9 9.85 -141 9.05 -140.25 8.95 -140.15 8.6 -139.85 8 -139.3 5.1 -138.15
L 7.25 -138.85
Q 7 -138.7 6.7 -138.55 5.95 -138.25 5.1 -138.15 12.85 -138.6 17.65 -145.9 13.5 -149.3 6.7 -150.05 Z"/>

<path fill="#2F1710" stroke="none" d="
M -37.5 -149.45
Q -36 -150.5 -34.05 -150.5 -31.9 -150.5 -30.3 -149.25 -25.5 -147.6 -21.4 -143.6 -21.35 -144.15 -21.35 -144.7 -23.65 -148.3 -28.65 -150.35 -32.95 -152.4 -37.9 -151.75 -43.9 -150.35 -47.8 -148.05
L -47.55 -146.75 -47.3 -145.4
Q -43.45 -147.9 -37.75 -149.3 -37.65 -149.4 -37.5 -149.45
M -36.65 -164.45
L -39.3 -162.95
Q -38.75 -162.7 -38.2 -162.45 -30.95 -159.4 -24.3 -158.05
L -25.3 -161.75
Q -30.5 -163.9 -36.65 -164.45
M 7.35 -163.25
L 19.4 -158.35
Q 16.55 -162.65 7.95 -165.85 0.3 -165.1 -7.65 -162.15
L -9.05 -158.05 7.35 -163.25
M 0.1 -148.85
Q 0.45 -149.2 0.85 -149.45 2.35 -150.5 4.3 -150.5 5.2 -150.5 6 -150.25 6.15 -150.25 6.35 -150.15 6.5 -150.1 6.7 -150.05 13.5 -149.3 17.65 -145.9 22.5 -146.45 22.15 -149.9 20.4 -148 18.25 -148.3 20.3 -151 20.05 -153.3
L 17.05 -150.8 14.6 -149.9
Q 10.05 -152.1 6.4 -151.9 3.3 -152.3 -0.55 -150.5 -5.1 -147.85 -7.15 -145.2 -7.25 -144.55 -7.15 -143.9 -4.55 -146.9 0.1 -148.85 Z"/>

<path fill="#7E4C1B" stroke="none" d="
M -37.75 -149.3
Q -38.1 -149.05 -38.45 -148.7 -40.25 -146.85 -40.25 -144.3 -40.25 -141.75 -38.45 -139.95 -38.15 -139.65 -37.75 -139.35 -37.35 -139.05 -36.9 -138.8 -35.6 -138.1 -34.05 -138.1 -32.75 -138.1 -31.65 -138.55 -31.2 -138.75 -30.8 -139 -30.2 -139.4 -29.7 -139.95 -27.85 -141.75 -27.85 -144.3 -27.85 -146.85 -29.7 -148.7 -30 -149 -30.3 -149.25 -31.9 -150.5 -34.05 -150.5 -36 -150.5 -37.5 -149.45 -37.65 -149.4 -37.75 -149.3
M -32.5 -146.2
Q -31.65 -145.35 -31.6 -144.25 -31.55 -143.15 -32.4 -142.3 -33.25 -141.45 -34.45 -141.45 -35.65 -141.45 -36.5 -142.3 -37.35 -143.15 -37.35 -144.35 -37.35 -145.55 -36.5 -146.4 -35.65 -147.25 -34.5 -147.15 -33.35 -147.05 -32.5 -146.2
M 8.65 -148.7
Q 7.75 -149.6 6.7 -150.05 6.5 -150.1 6.35 -150.15 6.15 -150.25 6 -150.25 5.2 -150.5 4.3 -150.5 2.35 -150.5 0.85 -149.45 0.45 -149.2 0.1 -148.85 0 -148.8 -0.1 -148.7 -1.9 -146.85 -1.9 -144.3 -1.9 -141.75 -0.1 -139.95 0.25 -139.6 2.65 -138.3 3.45 -138.1 4.3 -138.1 4.7 -138.1 5.1 -138.15 8 -139.3 8.6 -139.85 8.95 -140.15 9.05 -140.25 9.85 -141 10.2 -143.9 10.5 -146.85 8.65 -148.7
M 5.85 -146.1
Q 6.7 -145.25 7 -144.2 7.25 -143.15 6.4 -142.3 5.55 -141.45 4.35 -141.45 3.15 -141.45 2.3 -142.3 1.45 -143.15 1.45 -144.35 1.45 -145.55 2.3 -146.4 3.15 -147.25 4.1 -147.1 5 -146.95 5.85 -146.1 Z"/>

<path fill="#021A2C" stroke="none" d="
M -31.6 -144.25
Q -31.65 -145.35 -32.5 -146.2 -33.35 -147.05 -34.5 -147.15 -35.65 -147.25 -36.5 -146.4 -37.35 -145.55 -37.35 -144.35 -37.35 -143.15 -36.5 -142.3 -35.65 -141.45 -34.45 -141.45 -33.25 -141.45 -32.4 -142.3 -31.55 -143.15 -31.6 -144.25
M 7 -144.2
Q 6.7 -145.25 5.85 -146.1 5 -146.95 4.1 -147.1 3.15 -147.25 2.3 -146.4 1.45 -145.55 1.45 -144.35 1.45 -143.15 2.3 -142.3 3.15 -141.45 4.35 -141.45 5.55 -141.45 6.4 -142.3 7.25 -143.15 7 -144.2 Z"/>

<path fill="#1F1A17" stroke="none" d="
M 37 116.4
Q 21.05 126 1.2 131.05
L -15.5 128.85
Q -20.65 131.9 -30.65 131.25 -45.3 129.25 -60.55 121.85 -58.95 133.75 -53.25 141.15 -57.35 141.1 -61.9 137.35
L -67.4 124.6 -69.5 130.25 -62.85 187.3 -59 214.15 -21.2 214.15 -15.85 153.45 -13.8 164.65 -12.25 214.15 23.85 214.15
Q 31.2 183.4 34.9 148.05 37.5 133.8 37 116.4 Z"/>

<path fill="#090F0A" stroke="none" d="
M 1.2 131.05
Q 21.05 126 37 116.4 36.9 114.2 36.8 111.95 17.1 126.2 -10.8 127.7 -14.75 126.75 -14.65 125.2 -15.95 125.7 -17.25 126.7 -33.15 129.1 -61.05 117.05 -60.9 119.55 -60.55 121.85 -45.3 129.25 -30.65 131.25 -20.65 131.9 -15.5 128.85
L 1.2 131.05 Z"/>

<path fill="#2B7F89" stroke="none" d="
M 29.75 57.05
Q 30.65 58.55 31.45 60.1 35.9 68.7 37.8 79.35 38.05 81.05 38.3 82.85
L 43.1 77.9 41.15 63.2 32.3 55.1 29.75 57.05 Z"/>

<path fill="#3F7C7E" stroke="none" d="
M 10.65 26.75
Q 16.9 24.55 22.5 21.05 23.95 20.1 25.35 19.1
L 30.45 12.75 18.3 20.15
Q 7.9 24.45 -2.55 20.15
L -6.75 24.2
Q 1.1 29.35 10.65 26.75 Z"/>

<path fill="#298493" stroke="none" d="
M 75.5 22.8
L 68.45 17.7 60.2 25.75 38 52.5 43.25 57.65 43.25 50.25 68.45 22.8 75.5 22.8 Z"/>

<path fill="#B36F35" stroke="none" d="
M 23.15 -151.6
Q 21.7 -160.9 15.95 -170.5 8.3 -183.4 -2.1 -189.8 -23.7 -181.25 -36.65 -164.45 -30.5 -163.9 -25.3 -161.75
L -24.3 -158.05
Q -30.95 -159.4 -38.2 -162.45 -43.35 -157.15 -45.4 -151.85 -43.8 -154.05 -39.4 -155.35 -32.45 -155.3 -27.75 -151.85 -21.6 -148.75 -21.35 -144.7 -21.35 -144.15 -21.4 -143.6 -24.8 -139.6 -30.8 -139 -31.2 -138.75 -31.65 -138.55 -32.75 -138.1 -34.05 -138.1 -35.6 -138.1 -36.9 -138.8 -37.35 -139.05 -37.75 -139.35 -42.7 -140.25 -47.3 -145.4
L -47.55 -146.75
Q -50.7 -139.9 -51.7 -132 -52.75 -126.8 -50.6 -118.6 -44.2 -108.75 -27.9 -96.8 -19 -90.4 -10.65 -89.75 -7.1 -90 -4.65 -92.05 10.35 -102.95 18.15 -118.05 18.95 -120.3 19.7 -122.45 24.7 -138.05 23.35 -147.3
L 23.15 -151.6
M 10.7 -155.25
Q 15.95 -155.1 17.05 -150.8
L 20.05 -153.3
Q 20.3 -151 18.25 -148.3 20.4 -148 22.15 -149.9 22.5 -146.45 17.65 -145.9 12.85 -138.6 5.1 -138.15 4.7 -138.1 4.3 -138.1 3.45 -138.1 2.65 -138.3
L 2.6 -138.3 2.5 -138.35
Q -3.6892578125 -139.3021484375 -7.15 -143.9 -7.25 -144.55 -7.15 -145.2 -6.7 -148.25 -2.15 -150.6 3.35 -155.4 10.7 -155.25
M 19.4 -158.35
L 7.35 -163.25 -9.05 -158.05 -7.65 -162.15
Q 0.3 -165.1 7.95 -165.85 16.55 -162.65 19.4 -158.35
M 1.3 -120.75
L 6.7 -123 1.3 -117.65
Q 0.85 -116.6 0.35 -115.6 -2 -110.85 -5.15 -106.9 -6.25 -103.05 -12.35 -101.4 -17.8 -101.65 -20.9 -105.5 -26.6 -110.75 -31.95 -116.75 -35.85 -118.3 -40.1 -122.5
L -31.85 -119.75
Q -24.8 -119.95 -22.2 -120.25 -17.1 -120.45 -16.2 -120.3 -11.9 -119.65 -8.35 -121.8 -1.95 -121.65 1.3 -120.75
M -9.45 -129.75
Q -8.2 -134.3 -10.65 -141.8 -6.85 -137.35 -6.05 -128.4 -11.8 -123.3 -23 -127.5 -12.65 -127 -9.45 -129.75 Z"/>

<path fill="#884E23" stroke="none" d="
M -10.65 -141.8
Q -8.2 -134.3 -9.45 -129.75 -12.65 -127 -23 -127.5 -11.8 -123.3 -6.05 -128.4 -6.85 -137.35 -10.65 -141.8 Z"/>

<path fill="#932731" stroke="none" d="
M -29.55 -116.95
L -31.95 -116.75
Q -26.6 -110.75 -20.9 -105.5 -17.8 -101.65 -12.35 -101.4 -6.25 -103.05 -5.15 -106.9 -2 -110.85 0.35 -115.6
L -1.45 -117.05 -6.05 -112.15
Q -7.7 -108.9 -13.25 -108.4 -18.2 -108.05 -21.1 -111.15 -26.65 -113.1 -29.55 -116.95 Z"/>

<path fill="#602524" stroke="none" d="
M 6.7 -123
L 1.3 -120.75
Q -1.95 -121.65 -8.35 -121.8 -11.9 -119.65 -16.2 -120.3 -17.1 -120.45 -22.2 -120.25 -24.8 -119.95 -31.85 -119.75
L -40.1 -122.5
Q -35.85 -118.3 -31.95 -116.75
L -29.55 -116.95
Q -27.75 -117.65 -22.45 -116.65 -22.35 -116.65 -22.2 -116.65 -20.1 -116.95 -16 -116.95 -10.55 -116.95 -6.2 -117.4 -1.85 -117.9 -1.25 -117.5 -1.05 -117.35 -1.45 -117.05
L 0.35 -115.6
Q 0.85 -116.6 1.3 -117.65
L 6.7 -123 Z"/>

<path fill="#070B0B" stroke="none" d="
M 28 -189.45
Q 26 -192.7 23.85 -195.15 20.35 -199.15 16.4 -201.05
L 21.25 -190.95
Q 9.65 -195.85 -1.95 -194.7 8.8 -187.25 15.8 -176.95 22 -166.15 25.45 -155.4 27 -162.05 20 -182.2
L 26.5 -171.5
Q 28.9 -158.05 28.6 -146.95
L 32.1 -159.6
Q 33.55 -178.6 28 -189.45 Z"/>

<path fill="#2A1618" stroke="none" d="
M 24.45 -198.5
Q 19.1 -205.85 11.05 -209 0.3 -215.2 -19 -213.9 -36 -212.35 -49.6 -203.85 -63.2 -196.15 -72.2 -180.35 -79.5 -167 -76.95 -150.45 -75.75 -132.95 -73.4 -113.5 -75.8 -104.65 -78.85 -97 -85.15 -88.05 -88.9 -75
L -88.9 -65.25
Q -87.75 -56.75 -84.4 -52.2 -80.2 -45.4 -73.15 -44.3 -68.8 -46 -64.55 -48.25 -72.95 -54.75 -76.2 -66.95 -63.15 -54.5 -48.35 -61.8 -64.95 -69.1 -68.7 -85.95 -58.2 -73.1 -45.2 -74.75 -65.8 -90.2 -67.95 -118.3 -56.95 -100.2 -42.65 -97.7 -49.15 -108.4 -50.6 -118.6 -52.75 -126.8 -51.7 -132 -50.7 -139.9 -47.55 -146.75
L -47.8 -148.05 -46.1 -150.65
Q -45.85 -151.3 -45.4 -151.85 -43.35 -157.15 -38.2 -162.45 -38.75 -162.7 -39.3 -162.95
L -36.65 -164.45
Q -23.7 -181.25 -2.1 -189.8 8.3 -183.4 15.95 -170.5 21.7 -160.9 23.15 -151.6
L 23.35 -147.3
Q 24.7 -138.05 19.7 -122.45
L 24.55 -127.4 31.65 -92.9
Q 34.55 -69.15 15.95 -67.15 34.5 -58.3 49.7 -70.1 47.55 -58.4 27.2 -51.45 32.55 -47.95 38.25 -45.1 51.05 -46.85 59.45 -58.45 62.95 -67.6 61.75 -76.8 58.3 -89.55 48.5 -102.7
L 43.85 -114.25 43.85 -125.4
Q 47.4 -142.55 47.75 -160.45 46.2 -176.4 38.75 -187.8 33.7 -196.1 24.45 -198.5
L 23.85 -195.15 30.3 -191.1
Q 35.7 -181.3 36.15 -169.7 38 -154.5 33.3 -143.95
L 39.3 -108.4
Q 40.7 -97.3 39.3 -87.6 44.8 -91 43.4 -106.85
L 43.4 -116.35 43.4 -106.85
Q 44.8 -91 39.3 -87.6 40.7 -97.3 39.3 -108.4
L 33.3 -143.95
Q 38 -154.5 36.15 -169.7 35.7 -181.3 30.3 -191.1
L 23.85 -195.15
Q 26 -192.7 28 -189.45 33.55 -178.6 32.1 -159.6
L 28.6 -146.95
Q 28.9 -158.05 26.5 -171.5
L 20 -182.2
Q 27 -162.05 25.45 -155.4 22 -166.15 15.8 -176.95 8.8 -187.25 -1.95 -194.7 9.65 -195.85 21.25 -190.95
L 16.4 -201.05
Q 20.35 -199.15 23.85 -195.15
L 24.45 -198.5
M 12.8 -198.45
L 6 -198.45
Q -7.7 -198.4 -19 -189.55 -34.65 -177.2 -45.2 -159.15 -52.1 -148.05 -54.65 -133.55 -54.8 -114.9 -49.7 -102.95 -60.4 -113.2 -68.85 -131.45 -74.25 -147.75 -72.95 -167.1 -68.8 -184.2 -52.45 -198.9 -36.9 -208.45 -17.5 -209.75 0.4 -208.6 12.8 -198.45
M -51.85 -192.85
Q -62.15 -181 -66.75 -166.65 -69.3 -138.6 -59.5 -121.15 -58.3 -143.4 -47.45 -166.2 -34.75 -183.8 -17.15 -198.15 -31.65 -196.05 -47.3 -180.85 -55.4 -169.15 -59.8 -155.8 -59.6 -168.4 -50.9 -186.7 -38.15 -197.6 -20.5 -205.05 -36.9 -202.9 -51.85 -192.85 Z"/>
</g>

<path id="Symbol_2_0_Layer0_0_1_STROKES" stroke="#000000" stroke-width="1" stroke-linejoin="round" stroke-linecap="round" fill="none" d="
M -73.15 -44.3
Q -80.2 -45.4 -84.4 -52.2 -87.75 -56.75 -88.9 -65.25
L -88.9 -75
Q -85.15 -88.05 -78.85 -97 -75.8 -104.65 -73.4 -113.5 -75.75 -132.95 -76.95 -150.45 -79.5 -167 -72.2 -180.35 -63.2 -196.15 -49.6 -203.85 -36 -212.35 -19 -213.9 0.3 -215.2 11.05 -209 19.1 -205.85 24.45 -198.5 33.7 -196.1 38.75 -187.8 46.2 -176.4 47.75 -160.45 47.4 -142.55 43.85 -125.4
L 43.85 -114.25 48.5 -102.7
Q 58.3 -89.55 61.75 -76.8 62.95 -67.6 59.45 -58.45 51.05 -46.85 38.25 -45.1 50.65 -38.25 88.85 20.15 89.9 34.45 80.95 38.7
L 43.1 77.9 38.3 82.85
Q 38.05 81.05 37.8 79.35 36.45 85.9 33.7 90.25 37.35 101.1 36.8 111.95 36.9 114.2 37 116.4 37.5 133.8 34.9 148.05 31.2 183.4 23.85 214.15
L -12.25 214.15 -13.8 164.65 -15.85 153.45 -21.2 214.15 -59 214.15 -62.85 187.3 -69.5 130.25 -70.1 131.85
Q -70.15 140.25 -72 144.6
L -72 149.2
Q -73.2 156.35 -76.55 162.45 -77.6 166.95 -83.65 167.15 -82.45 157.65 -83.65 145.9 -85.9 151.6 -88.2 151.1 -86.2 132.2 -83.65 118.4 -85.3 118.7 -86.95 118.85
L -86.7 112.7 -83 0.45
Q -89.45 -33.75 -73.15 -44.3 -68.8 -46 -64.55 -48.25 -72.95 -54.75 -76.2 -66.95 -63.15 -54.5 -48.35 -61.8 -64.95 -69.1 -68.7 -85.95 -58.2 -73.1 -45.2 -74.75 -65.8 -90.2 -67.95 -118.3 -56.95 -100.2 -42.65 -97.7 -49.15 -108.4 -50.6 -118.6 -52.75 -126.8 -51.7 -132 -50.7 -139.9 -47.55 -146.75
L -47.8 -148.05 -46.1 -150.65
Q -45.85 -151.3 -45.4 -151.85 -43.35 -157.15 -38.2 -162.45 -38.75 -162.7 -39.3 -162.95
L -36.65 -164.45
Q -23.7 -181.25 -2.1 -189.8 8.3 -183.4 15.95 -170.5 21.7 -160.9 23.15 -151.6
L 23.35 -147.3
Q 24.7 -138.05 19.7 -122.45
L 24.55 -127.4 31.65 -92.9
Q 34.55 -69.15 15.95 -67.15 34.5 -58.3 49.7 -70.1 47.55 -58.4 27.2 -51.45 32.55 -47.95 38.25 -45.1
M -45.2 -159.15
Q -34.65 -177.2 -19 -189.55 -7.7 -198.4 6 -198.45
L 12.8 -198.45
Q 0.4 -208.6 -17.5 -209.75 -36.9 -208.45 -52.45 -198.9 -68.8 -184.2 -72.95 -167.1 -74.25 -147.75 -68.85 -131.45 -60.4 -113.2 -49.7 -102.95 -54.8 -114.9 -54.65 -133.55 -52.1 -148.05 -45.2 -159.15 Z
M 43.4 -116.35
L 43.4 -106.85
Q 44.8 -91 39.3 -87.6 40.7 -97.3 39.3 -108.4
L 33.3 -143.95
Q 38 -154.5 36.15 -169.7 35.7 -181.3 30.3 -191.1
L 23.85 -195.15
Q 26 -192.7 28 -189.45 33.55 -178.6 32.1 -159.6
L 28.6 -146.95
Q 28.9 -158.05 26.5 -171.5
L 20 -182.2
Q 27 -162.05 25.45 -155.4 22 -166.15 15.8 -176.95 8.8 -187.25 -1.95 -194.7 9.65 -195.85 21.25 -190.95
L 16.4 -201.05
Q 20.35 -199.15 23.85 -195.15
L 24.45 -198.5
M 6.7 -150.05
Q 7.75 -149.6 8.65 -148.7 10.5 -146.85 10.2 -143.9 9.85 -141 9.05 -140.25 8.95 -140.15 8.6 -139.85 8 -139.3 5.1 -138.15
L 7.25 -138.85
Q 7 -138.7 6.7 -138.55 5.95 -138.25 5.1 -138.15 12.85 -138.6 17.65 -145.9 13.5 -149.3 6.7 -150.05 6.5 -150.1 6.35 -150.15 6.15 -150.25 6 -150.25 5.2 -150.5 4.3 -150.5 2.35 -150.5 0.85 -149.45 0.45 -149.2 0.1 -148.85 0 -148.8 -0.1 -148.7 -1.9 -146.85 -1.9 -144.3 -1.9 -141.75 -0.1 -139.95 0.25 -139.6 2.65 -138.3 3.45 -138.1 4.3 -138.1 4.7 -138.1 5.1 -138.15
M -7.15 -145.2
Q -6.7 -148.25 -2.15 -150.6 3.35 -155.4 10.7 -155.25 15.95 -155.1 17.05 -150.8
L 20.05 -153.3
Q 20.3 -151 18.25 -148.3 20.4 -148 22.15 -149.9 22.5 -146.45 17.65 -145.9
M -7.15 -145.2
Q -5.1 -147.85 -0.55 -150.5 3.3 -152.3 6.4 -151.9 10.05 -152.1 14.6 -149.9
L 17.05 -150.8
M 7 -144.2
Q 7.25 -143.15 6.4 -142.3 5.55 -141.45 4.35 -141.45 3.15 -141.45 2.3 -142.3 1.45 -143.15 1.45 -144.35 1.45 -145.55 2.3 -146.4 3.15 -147.25 4.1 -147.1 5 -146.95 5.85 -146.1 6.7 -145.25 7 -144.2 Z
M 2.05 -138.5
L 2 -138.5 2.5 -138.325 2.55 -138.325
Q 2.28203125 -138.4072265625 2.05 -138.5 Z
M 2.6 -138.3
L 2.55 -138.325
Q 2.6037109375 -138.30703125 2.65 -138.3
L 2.6 -138.3 2.5 -138.325
Q -3.6892578125 -139.3021484375 -7.15 -143.9 -7.25 -144.55 -7.15 -145.2
M -4.65 -92.05
Q 10.35 -102.95 18.15 -118.05 18.95 -120.3 19.7 -122.45
M 19.75 -56.75
Q 18.25 -57.9 16.75 -59.15 1.15 -77.2 -4.05 -77.1 1.3 -65 0.3 -52.55 0.05 -51.45 -0.45 -50.5
M 27.2 -51.45
Q 23.4 -53.95 19.75 -56.75
M -14.65 125.2
Q -14.75 126.75 -10.8 127.7 17.1 126.2 36.8 111.95
M 60.2 25.75
L 64.25 20.85 34.85 53.15 32.3 55.1
M 30.45 12.75
Q 35.65 6.95 38.25 -1.05
L 64.25 20.85
M 22.5 21.05
Q 18.55 33.55 19.2 46.1 21.1 55.15 22.95 58.85 27.45 57.85 31.45 60.1 30.65 58.55 29.75 57.05
L 32.3 55.1
M 22.5 21.05
Q 23.95 20.1 25.35 19.1
L 30.45 12.75
M 33.7 90.25
Q 33.15 91.1 32.55 91.85 26.2 95.25 18.75 94.4
L 18.75 92.6
Q 15.7 91.55 12.6 86.45 9.4 81.05 11.25 77.15 11.1 68.8 16.5 66.45 15.15 63.85 16.5 60.15
L 22.95 58.85
M 31.45 60.1
Q 35.9 68.7 37.8 79.35
M -60.55 121.85
Q -45.3 129.25 -30.65 131.25 -20.65 131.9 -15.5 128.85
L 1.2 131.05
Q 21.05 126 37 116.4
M -37.75 -139.35
Q -38.15 -139.65 -38.45 -139.95 -40.25 -141.75 -40.25 -144.3 -40.25 -146.85 -38.45 -148.7 -38.1 -149.05 -37.75 -149.3 -43.45 -147.9 -47.3 -145.4 -42.7 -140.25 -37.75 -139.35 -37.35 -139.05 -36.9 -138.8 -35.6 -138.1 -34.05 -138.1 -32.75 -138.1 -31.65 -138.55 -31.2 -138.75 -30.8 -139 -30.2 -139.4 -29.7 -139.95 -27.85 -141.75 -27.85 -144.3 -27.85 -146.85 -29.7 -148.7 -30 -149 -30.3 -149.25 -31.9 -150.5 -34.05 -150.5 -36 -150.5 -37.5 -149.45 -37.65 -149.4 -37.75 -149.3
M -36.65 -164.45
Q -30.5 -163.9 -25.3 -161.75
L -24.3 -158.05
Q -30.95 -159.4 -38.2 -162.45
M -21.35 -144.7
Q -21.6 -148.75 -27.75 -151.85 -32.45 -155.3 -39.4 -155.35 -43.8 -154.05 -45.4 -151.85
M -47.8 -148.05
Q -43.9 -150.35 -37.9 -151.75 -32.95 -152.4 -28.65 -150.35 -23.65 -148.3 -21.35 -144.7 -21.35 -144.15 -21.4 -143.6 -24.8 -139.6 -30.8 -139
M -59.5 -121.15
Q -69.3 -138.6 -66.75 -166.65 -62.15 -181 -51.85 -192.85 -36.9 -202.9 -20.5 -205.05 -38.15 -197.6 -50.9 -186.7 -59.6 -168.4 -59.8 -155.8 -55.4 -169.15 -47.3 -180.85 -31.65 -196.05 -17.15 -198.15 -34.75 -183.8 -47.45 -166.2 -58.3 -143.4 -59.5 -121.15 Z
M -47.55 -146.75
L -47.3 -145.4
M -31.6 -144.25
Q -31.55 -143.15 -32.4 -142.3 -33.25 -141.45 -34.45 -141.45 -35.65 -141.45 -36.5 -142.3 -37.35 -143.15 -37.35 -144.35 -37.35 -145.55 -36.5 -146.4 -35.65 -147.25 -34.5 -147.15 -33.35 -147.05 -32.5 -146.2 -31.65 -145.35 -31.6 -144.25 Z
M -21.4 -143.6
Q -25.5 -147.6 -30.3 -149.25
M -27.9 -96.8
Q -19 -90.4 -10.65 -89.75 -7.1 -90 -4.65 -92.05
L -4.05 -87.4
Q -3.4 -81 -4.05 -77.1
M -27.9 -96.8
L -27.9 -91.1 -27.9 -85.35 -29.65 -77.6
Q -33.7 -61.45 -33 -53.3 -27.25 -47.5 -15.75 -44.3 -3.45 -45.2 -0.45 -50.5 -2.7 -42.4 -11.4 -28.2 -14.75 -16 -16.35 -4.65
M -33 -53.3
Q -32.8 -52.65 -32.55 -51.95 -29.5 -43.3 -20.55 -26.25 -16.7 -14.7 -16.35 -4.65
M -19.65 0.05
L -19 3.05
Q -19.05 2.75 -19.05 2.5 -19.05 1.5 -18.35 0.75 -17.6 0.05 -16.6 0.05 -15.6 0.05 -14.9 0.75 -14.15 1.5 -14.15 2.5 -14.15 3.5 -14.9 4.2 -15.6 4.95 -16.6 4.95 -17.6 4.95 -18.35 4.2 -18.8 3.75 -18.95 3.15 -18.99921875 3.10078125 -19 3.05
L -19.05 13.55
Q -18.95 13.4 -18.8 13.25 -18.05 12.55 -17.05 12.55 -16.05 12.55 -15.35 13.25 -14.6 14 -14.6 15 -14.6 16 -15.35 16.7 -16.05 17.45 -17.05 17.45 -18.05 17.45 -18.8 16.7 -19 16.5 -19.15 16.3
L -18.7 26.15
Q -18 25.5 -17.05 25.5 -16.05 25.5 -15.35 26.2 -14.6 26.95 -14.6 27.95 -14.6 28.95 -15.35 29.65 -16.05 30.4 -17.05 30.4 -17.95 30.4 -18.65 29.8
L -17.45 38.45
Q -17.25 38.4 -17.05 38.4 -16.05 38.4 -15.35 39.1 -14.6 39.85 -14.6 40.85 -14.6 41.85 -15.35 42.55 -16 43.25 -16.9 43.3
L -16.95 51
Q -16 51.05 -15.35 51.7 -14.6 52.45 -14.6 53.45 -14.6 54.45 -15.35 55.15 -15.95 55.8 -16.75 55.9
L -16.85 63.8
Q -16 63.85 -15.35 64.5 -14.6 65.25 -14.6 66.25 -14.6 67.25 -15.35 67.95 -15.85 68.5 -16.5 68.65
L -16.85 76.55
Q -16 76.6 -15.35 77.25 -14.6 78 -14.6 79 -14.6 80 -15.35 80.7 -16.05 81.45 -17.05 81.45 -17.3 81.45 -17.55 81.4
L -17.45 88.9
Q -17.25 88.85 -17.05 88.85 -16.05 88.85 -15.35 89.55 -14.6 90.3 -14.6 91.3 -14.6 92.3 -15.35 93 -16.05 93.75 -17.05 93.75 -17.15 93.75 -17.25 93.75
L -17.05 101.9
Q -16.05 101.9 -15.35 102.6 -14.6 103.35 -14.6 104.35 -14.6 105.35 -15.35 106.05 -16.05 106.8 -17.05 106.8 -17.15 106.8 -17.25 106.8
M -46 -60.05
Q -52.05 -55 -59.2 -51.4 -61.85 -49.7 -64.55 -48.25
M -29.65 -77.6
Q -40.15 -70.35 -46 -60.05
M -50.6 -118.6
Q -44.2 -108.75 -27.9 -96.8
M -19.15 16.3
Q -19.5 15.7 -19.5 15 -19.5 14.2 -19.05 13.55
M -54.65 21
Q -50.05 31 -51.2 49.1 -56 61.85 -60.25 70.25
L -62.7 86.5 -65.15 102.8 -65.75 106.7
Q -65.2 108.7 -64.55 110.45 -63.05 114.5 -61.05 117.05 -33.15 129.1 -17.25 126.7
M -18.65 29.8
Q -18.7 29.75 -18.8 29.65 -19.5 28.95 -19.5 27.95 -19.5 26.95 -18.8 26.2 -18.75 26.15 -18.7 26.15
M -16.9 43.3
Q -16.95 43.3 -17.05 43.3 -18.05 43.3 -18.8 42.55 -19.5 41.85 -19.5 40.85 -19.5 39.85 -18.8 39.1 -18.2 38.55 -17.45 38.45
M -16.75 55.9
Q -16.9 55.9 -17.05 55.9 -18.05 55.9 -18.8 55.15 -19.5 54.45 -19.5 53.45 -19.5 52.45 -18.8 51.7 -18.05 51 -17.05 51 -17 51 -16.95 51
M -16.5 68.65
Q -16.75 68.7 -17.05 68.7 -18.05 68.7 -18.8 67.95 -19.5 67.25 -19.5 66.25 -19.5 65.25 -18.8 64.5 -18.05 63.8 -17.05 63.8 -16.95 63.8 -16.85 63.8
M -17.55 81.4
Q -18.25 81.25 -18.8 80.7 -19.5 80 -19.5 79 -19.5 78 -18.8 77.25 -18.05 76.55 -17.05 76.55 -16.95 76.55 -16.85 76.55
M -17.25 93.75
Q -18.15 93.65 -18.8 93 -19.5 92.3 -19.5 91.3 -19.5 90.3 -18.8 89.55 -18.2 89 -17.45 88.9
M -60.25 70.25
Q -56.35 46.45 -54.65 21
M -17.25 106.8
Q -18.15 106.7 -18.8 106.05 -19.5 105.35 -19.5 104.35 -19.5 103.35 -18.8 102.6 -18.05 101.9 -17.05 101.9
M -69.5 130.25
L -67.4 124.6 -61.9 137.35
Q -57.35 141.1 -53.25 141.15 -58.95 133.75 -60.55 121.85 -60.9 119.55 -61.05 117.05
M -64.55 110.45
Q -74.35 116.65 -83.65 118.4
M 0.1 -148.85
Q -4.55 -146.9 -7.15 -143.9"/>
</defs>

<g transform="matrix( 1, 0, 0, 1, 0,0) ">
<use xlink:href="#Layer2_0_FILL"/>
</g>

<mask id="Mask_Mask_1">
<g transform="matrix( 1, 0, 0, 1, 0,0) ">
<use xlink:href="#Mask_1_MASK_0_FILL"/>
</g>
</mask>

<g mask="url(#Mask_Mask_1)">
<g transform="matrix( 1, 0, 0, 1, 250,225) ">
<g transform="matrix( 1, 0, 0, 1, 0,0) ">
<use xlink:href="#Symbol_2_0_Layer0_0_FILL"/>

<use xlink:href="#Symbol_2_0_Layer0_0_1_STROKES"/>
</g>
</g>
</g>
</svg>
