<svg id="visual" viewBox="0 0 900 600" width="900" height="600" xmlns="http://www.w3.org/2000/svg" xmlns:xlink="http://www.w3.org/1999/xlink" version="1.1"><path d="M366 600L381.2 590C396.3 580 426.7 560 428 540C429.3 520 401.7 500 431 480C460.3 460 546.7 440 585 420C623.3 400 613.7 380 605.5 360C597.3 340 590.7 320 590.3 300C590 280 596 260 609.2 240C622.3 220 642.7 200 660.8 180C679 160 695 140 696 120C697 100 683 80 675.8 60C668.7 40 668.3 20 668.2 10L668 0L900 0L900 10C900 20 900 40 900 60C900 80 900 100 900 120C900 140 900 160 900 180C900 200 900 220 900 240C900 260 900 280 900 300C900 320 900 340 900 360C900 380 900 400 900 420C900 440 900 460 900 480C900 500 900 520 900 540C900 560 900 580 900 590L900 600Z" fill="#280065" stroke-linecap="round" stroke-linejoin="miter"></path></svg>